<svg width="42" height="43" viewBox="0 0 42 43" fill="none" xmlns="http://www.w3.org/2000/svg">
<path d="M36.75 21.9368C36.75 19.8684 36.3426 17.8204 35.5511 15.9095C34.7596 13.9986 33.5995 12.2624 32.1369 10.7998C30.6744 9.33731 28.9381 8.17718 27.0273 7.38566C25.1164 6.59415 23.0683 6.18677 21 6.18677C18.9317 6.18677 16.8836 6.59415 14.9727 7.38566C13.0619 8.17718 11.3256 9.33731 9.86307 10.7998C8.40055 12.2624 7.24041 13.9986 6.4489 15.9095C5.65739 17.8204 5.25 19.8684 5.25 21.9368C5.25 24.0051 5.65739 26.0532 6.4489 27.964C7.24041 29.8749 8.40055 31.6112 9.86307 33.0737C11.3256 34.5362 13.0619 35.6964 14.9727 36.4879C16.8836 37.2794 18.9317 37.6868 21 37.6868C23.0683 37.6868 25.1164 37.2794 27.0273 36.4879C28.9381 35.6964 30.6744 34.5362 32.1369 33.0737C33.5995 31.6112 34.7596 29.8749 35.5511 27.964C36.3426 26.0532 36.75 24.0051 36.75 21.9368ZM0 21.9368C0 16.3672 2.21249 11.0258 6.15076 7.08753C10.089 3.14926 15.4305 0.936768 21 0.936768C26.5695 0.936768 31.911 3.14926 35.8492 7.08753C39.7875 11.0258 42 16.3672 42 21.9368C42 27.5063 39.7875 32.8477 35.8492 36.786C31.911 40.7243 26.5695 42.9368 21 42.9368C15.4305 42.9368 10.089 40.7243 6.15076 36.786C2.21249 32.8477 0 27.5063 0 21.9368ZM21 28.4993C22.7405 28.4993 24.4097 27.8079 25.6404 26.5772C26.8711 25.3464 27.5625 23.6772 27.5625 21.9368C27.5625 20.1963 26.8711 18.5271 25.6404 17.2964C24.4097 16.0657 22.7405 15.3743 21 15.3743C19.2595 15.3743 17.5903 16.0657 16.3596 17.2964C15.1289 18.5271 14.4375 20.1963 14.4375 21.9368C14.4375 23.6772 15.1289 25.3464 16.3596 26.5772C17.5903 27.8079 19.2595 28.4993 21 28.4993ZM21 10.1243C24.1329 10.1243 27.1374 11.3688 29.3527 13.5841C31.568 15.7993 32.8125 18.8039 32.8125 21.9368C32.8125 25.0696 31.568 28.0742 29.3527 30.2895C27.1374 32.5047 24.1329 33.7493 21 33.7493C17.8671 33.7493 14.8626 32.5047 12.6473 30.2895C10.432 28.0742 9.1875 25.0696 9.1875 21.9368C9.1875 18.8039 10.432 15.7993 12.6473 13.5841C14.8626 11.3688 17.8671 10.1243 21 10.1243ZM18.375 21.9368C18.375 21.2406 18.6516 20.5729 19.1438 20.0806C19.6361 19.5883 20.3038 19.3118 21 19.3118C21.6962 19.3118 22.3639 19.5883 22.8562 20.0806C23.3484 20.5729 23.625 21.2406 23.625 21.9368C23.625 22.633 23.3484 23.3006 22.8562 23.7929C22.3639 24.2852 21.6962 24.5618 21 24.5618C20.3038 24.5618 19.6361 24.2852 19.1438 23.7929C18.6516 23.3006 18.375 22.633 18.375 21.9368Z" fill="#FE4A4A"/>
</svg>
