<svg width="42" height="43" viewBox="0 0 42 43" fill="none" xmlns="http://www.w3.org/2000/svg">
<g clip-path="url(#clip0_135_420)">
<path d="M12.4769 4.11235C13.289 4.84243 13.3546 6.0811 12.6246 6.89321L6.71831 13.4557C6.35737 13.8577 5.84878 14.0956 5.30737 14.1038C4.76597 14.112 4.24917 13.9069 3.86362 13.5295L0.57417 10.2483C-0.188721 9.4772 -0.188721 8.23032 0.57417 7.45923C1.33706 6.68813 2.59214 6.68813 3.35503 7.45923L5.16792 9.27212L9.68784 4.25181C10.4179 3.4397 11.6566 3.37407 12.4687 4.10415L12.4769 4.11235ZM12.4769 17.2373C13.289 17.9674 13.3546 19.2061 12.6246 20.0182L6.71831 26.5807C6.35737 26.9827 5.84878 27.2206 5.30737 27.2288C4.76597 27.237 4.24917 27.0319 3.86362 26.6545L0.57417 23.3733C-0.196924 22.6022 -0.196924 21.3553 0.57417 20.5924C1.34526 19.8295 2.59214 19.8213 3.35503 20.5924L5.16792 22.4053L9.68784 17.385C10.4179 16.5729 11.6566 16.5073 12.4687 17.2373H12.4769ZM18.375 8.85376C18.375 7.4018 19.548 6.22876 20.9999 6.22876H39.3749C40.8269 6.22876 41.9999 7.4018 41.9999 8.85376C41.9999 10.3057 40.8269 11.4788 39.3749 11.4788H20.9999C19.548 11.4788 18.375 10.3057 18.375 8.85376ZM18.375 21.9788C18.375 20.5268 19.548 19.3538 20.9999 19.3538H39.3749C40.8269 19.3538 41.9999 20.5268 41.9999 21.9788C41.9999 23.4307 40.8269 24.6038 39.3749 24.6038H20.9999C19.548 24.6038 18.375 23.4307 18.375 21.9788ZM13.125 35.1038C13.125 33.6518 14.298 32.4788 15.75 32.4788H39.3749C40.8269 32.4788 41.9999 33.6518 41.9999 35.1038C41.9999 36.5557 40.8269 37.7288 39.3749 37.7288H15.75C14.298 37.7288 13.125 36.5557 13.125 35.1038ZM3.93745 31.1663C4.98174 31.1663 5.98326 31.5811 6.72168 32.3195C7.46011 33.0579 7.87495 34.0595 7.87495 35.1038C7.87495 36.148 7.46011 37.1496 6.72168 37.888C5.98326 38.6264 4.98174 39.0413 3.93745 39.0413C2.89316 39.0413 1.89164 38.6264 1.15322 37.888C0.414794 37.1496 -4.88521e-05 36.148 -4.88521e-05 35.1038C-4.88521e-05 34.0595 0.414794 33.0579 1.15322 32.3195C1.89164 31.5811 2.89316 31.1663 3.93745 31.1663Z" fill="#53C4CD"/>
</g>
<defs>
<clipPath id="clip0_135_420">
<rect width="42" height="42" fill="white" transform="translate(0 0.97876)"/>
</clipPath>
</defs>
</svg>
