<svg width="18" height="21" viewBox="0 0 18 21" fill="none" xmlns="http://www.w3.org/2000/svg">
<g clip-path="url(#clip0_135_400)">
<path d="M9.00032 0C8.28916 0 7.71461 0.586523 7.71461 1.3125V2.04668C4.80166 2.51836 2.57175 5.09414 2.57175 8.20312V9.57305C2.57175 11.4352 1.94898 13.2439 0.811929 14.6959L0.213269 15.4629C-0.019767 15.7582 -0.0639635 16.1643 0.0967508 16.5047C0.257465 16.8451 0.594965 17.0625 0.964608 17.0625H17.036C17.4057 17.0625 17.7432 16.8451 17.9039 16.5047C18.0646 16.1643 18.0204 15.7582 17.7874 15.4629L17.1887 14.7C16.0517 13.2439 15.4289 11.4352 15.4289 9.57305V8.20312C15.4289 5.09414 13.199 2.51836 10.286 2.04668V1.3125C10.286 0.586523 9.71148 0 9.00032 0ZM9.00032 3.9375H9.32175C11.628 3.9375 13.5003 5.84883 13.5003 8.20312V9.57305C13.5003 11.5377 14.0588 13.4531 15.0954 15.0938H2.90523C3.94184 13.4531 4.50032 11.5377 4.50032 9.57305V8.20312C4.50032 5.84883 6.37264 3.9375 8.67889 3.9375H9.00032ZM11.5718 18.375H9.00032H6.42889C6.42889 19.0723 6.69809 19.7408 7.18023 20.233C7.66238 20.7252 8.31729 21 9.00032 21C9.68336 21 10.3383 20.7252 10.8204 20.233C11.3026 19.7408 11.5718 19.0723 11.5718 18.375Z" fill="#212121"/>
</g>
<defs>
<clipPath id="clip0_135_400">
<rect width="18" height="21" fill="white"/>
</clipPath>
</defs>
</svg>
