<svg width="531" height="542" viewBox="0 0 331 342" fill="none" xmlns="http://www.w3.org/2000/svg">
<path d="M39.924 219.082L28.088 219.304L22.091 219.394C20.088 219.431 18.075 219.424 16.066 219.438L15.712 219.44L15.711 219.082L15.667 209.001L15.666 208.6L16.066 208.602L27.995 208.652C31.971 208.656 35.947 208.741 39.923 208.783L40.143 208.785L40.141 209.001C40.126 210.707 40.073 212.406 40.037 214.088L39.924 219.082ZM39.924 219.082L39.811 213.994C39.775 212.316 39.722 210.654 39.706 209.001L39.924 209.218C35.948 209.259 31.972 209.345 27.996 209.349L16.067 209.4L16.465 209.001L16.422 219.082L16.066 218.727C18.034 218.741 19.998 218.733 21.972 218.77L27.903 218.86L39.924 219.082Z" fill="#EBEBEB"/>
<path d="M26.6149 231.794L14.7789 232.016L8.78194 232.106C6.77894 232.143 4.76594 232.136 2.75694 232.15L2.40294 232.152L2.40193 231.794L2.35794 221.713L2.35693 221.312L2.75694 221.314L14.6859 221.364C18.6619 221.368 22.6379 221.453 26.6139 221.495L26.8339 221.497L26.8319 221.713C26.8169 223.42 26.7639 225.119 26.7279 226.8L26.6149 231.794ZM26.6149 231.794L26.5019 226.707C26.4659 225.028 26.4129 223.366 26.3969 221.713L26.6149 221.931C22.6389 221.971 18.6629 222.057 14.6869 222.061L2.75793 222.112L3.15594 221.714L3.11295 231.795L2.75694 231.439C4.72494 231.453 6.68893 231.445 8.66293 231.483L14.5939 231.572L26.6149 231.794Z" fill="#EBEBEB"/>
<path d="M26.6149 13.6519L14.7789 13.8739L8.78194 13.9639C6.77894 14.0009 4.76594 13.9929 2.75694 14.0079L2.40294 14.0099L2.40193 13.6519L2.35794 3.57092L2.35693 3.16992L2.75694 3.17192L14.6859 3.22192C18.6619 3.22592 22.6379 3.31092 26.6139 3.35292L26.8339 3.35492L26.8319 3.57092C26.8169 5.27792 26.7639 6.97691 26.7279 8.65791L26.6149 13.6519ZM26.6149 13.6519L26.5019 8.56493C26.4659 6.88593 26.4129 5.22392 26.3969 3.57092L26.6149 3.78792C22.6389 3.82892 18.6629 3.91493 14.6869 3.91893L2.75793 3.96892L3.15594 3.57092L3.11295 13.6519L2.75694 13.2959C4.72494 13.3099 6.68893 13.3019 8.66293 13.3399L14.5939 13.4289L26.6149 13.6519Z" fill="#EBEBEB"/>
<path d="M328.242 13.6519L316.405 13.8739L310.408 13.9639C308.405 14.0009 306.392 13.9929 304.384 14.0079L304.03 14.0099L304.028 13.6519L303.985 3.57092L303.983 3.16992L304.384 3.17192L316.312 3.22192C320.289 3.22592 324.264 3.31092 328.241 3.35292L328.46 3.35492L328.459 3.57092C328.444 5.27792 328.39 6.97691 328.354 8.65791L328.242 13.6519ZM328.242 13.6519L328.128 8.56493C328.092 6.88593 328.039 5.22392 328.024 3.57092L328.242 3.78792C324.265 3.82892 320.289 3.91493 316.313 3.91893L304.385 3.96992L304.783 3.57092L304.74 13.6529L304.384 13.2969C306.352 13.3109 308.316 13.3029 310.289 13.3409L316.221 13.4299L328.242 13.6519Z" fill="#EBEBEB"/>
<path d="M314.933 26.364L303.097 26.587L297.1 26.676C295.097 26.713 293.084 26.705 291.076 26.72L290.721 26.722L290.72 26.364L290.677 16.283L290.675 15.882L291.076 15.884L303.004 15.934C306.981 15.938 310.956 16.023 314.933 16.065L315.152 16.067L315.151 16.283C315.135 17.99 315.082 19.689 315.046 21.37L314.933 26.364ZM314.933 26.364L314.82 21.277C314.784 19.598 314.731 17.936 314.716 16.283L314.933 16.501C310.957 16.541 306.981 16.628 303.005 16.632L291.076 16.682L291.475 16.284L291.432 26.365L291.076 26.009C293.044 26.023 295.007 26.015 296.981 26.053L302.912 26.142L314.933 26.364Z" fill="#EBEBEB"/>
<path d="M253.832 144.303L241.995 144.525L235.998 144.615C233.996 144.652 231.983 144.645 229.974 144.659L229.62 144.661L229.618 144.303L229.575 134.222L229.574 133.821L229.974 133.823L241.903 133.873C245.879 133.877 249.855 133.963 253.831 134.004L254.051 134.006L254.049 134.222C254.034 135.929 253.981 137.627 253.945 139.309L253.832 144.303ZM253.832 144.303L253.719 139.215C253.683 137.536 253.63 135.875 253.614 134.222L253.832 134.439C249.856 134.48 245.879 134.566 241.904 134.57L229.975 134.621L230.373 134.222L230.33 144.304L229.974 143.948C231.942 143.962 233.906 143.955 235.88 143.992L241.811 144.082L253.832 144.303Z" fill="#EBEBEB"/>
<path d="M240.523 157.015L228.686 157.238L222.689 157.327C220.686 157.364 218.674 157.356 216.665 157.371L216.311 157.373L216.309 157.015L216.266 146.934L216.265 146.533L216.665 146.535L228.594 146.585C232.57 146.589 236.546 146.675 240.522 146.716L240.742 146.718L240.74 146.934C240.725 148.641 240.672 150.34 240.636 152.021L240.523 157.015ZM240.523 157.015L240.41 151.928C240.374 150.249 240.32 148.587 240.305 146.934L240.523 147.152C236.547 147.192 232.571 147.278 228.595 147.282L216.666 147.333L217.064 146.935L217.021 157.016L216.665 156.66C218.633 156.674 220.597 156.666 222.571 156.704L228.502 156.793L240.523 157.015Z" fill="#EBEBEB"/>
<path d="M227.268 144.303L215.431 144.525L209.434 144.615C207.431 144.652 205.418 144.645 203.41 144.659L203.055 144.661L203.054 144.303L203.011 134.222L203.009 133.821L203.41 133.823L215.338 133.873C219.315 133.877 223.29 133.963 227.267 134.004L227.486 134.006L227.485 134.222C227.469 135.929 227.416 137.627 227.38 139.309L227.268 144.303ZM227.268 144.303L227.154 139.215C227.118 137.536 227.065 135.875 227.05 134.222L227.268 134.439C223.291 134.48 219.315 134.566 215.339 134.57L203.411 134.621L203.809 134.222L203.766 144.304L203.41 143.948C205.378 143.962 207.342 143.955 209.315 143.992L215.247 144.082L227.268 144.303Z" fill="#EBEBEB"/>
<path d="M328.242 231.794L316.405 232.016L310.408 232.106C308.405 232.143 306.392 232.136 304.384 232.15L304.03 232.152L304.028 231.794L303.985 221.713L303.983 221.312L304.384 221.314L316.312 221.364C320.289 221.368 324.265 221.453 328.241 221.495L328.46 221.497L328.459 221.713C328.444 223.42 328.39 225.119 328.354 226.8L328.242 231.794ZM328.242 231.794L328.128 226.707C328.092 225.028 328.039 223.366 328.024 221.713L328.242 221.931C324.265 221.971 320.29 222.057 316.313 222.061L304.385 222.112L304.783 221.714L304.74 231.795L304.384 231.439C306.352 231.453 308.316 231.445 310.289 231.483L316.221 231.572L328.242 231.794Z" fill="#EBEBEB"/>
<path d="M125.541 43.6299L113.704 43.8529L107.707 43.9419C105.704 43.9799 103.692 43.9719 101.683 43.9859L101.329 43.989L101.327 43.6299L101.284 33.549L101.283 33.1489L101.683 33.1499L113.612 33.2C117.588 33.204 121.564 33.2899 125.54 33.3309L125.76 33.334L125.758 33.549C125.743 35.256 125.689 36.9549 125.653 38.6359L125.541 43.6299ZM125.541 43.6299L125.428 38.5429C125.392 36.8649 125.338 35.203 125.323 33.549L125.541 33.7669C121.565 33.8079 117.589 33.8939 113.612 33.8979L101.684 33.9479L102.082 33.5499L102.039 43.631L101.683 43.2749C103.651 43.2889 105.615 43.2819 107.588 43.3189L113.52 43.4079L125.541 43.6299Z" fill="#EBEBEB"/>
<path d="M303.734 110.415L308.431 102.841L306.112 101.405C305.429 100.982 305.06 100.211 305.128 99.411C305.166 98.969 305.18 98.525 305.171 98.079C305.153 97.278 305.571 96.534 306.277 96.155L308.681 94.866L304.468 87.01L302.064 88.299C301.359 88.677 300.507 88.614 299.85 88.156C299.484 87.902 299.106 87.667 298.717 87.454C298.013 87.069 297.575 86.334 297.601 85.532L297.687 82.805L288.779 82.528L288.697 85.265C288.673 86.068 288.181 86.766 287.454 87.109C287.257 87.203 287.062 87.301 286.869 87.405C286.675 87.508 286.485 87.617 286.299 87.729C285.615 88.143 284.765 88.167 284.086 87.746L281.749 86.299L277.052 93.872L279.375 95.314C280.057 95.738 280.426 96.51 280.357 97.309C280.319 97.749 280.304 98.193 280.313 98.636C280.33 99.435 279.912 100.18 279.207 100.557L276.802 101.847L281.015 109.703L283.42 108.413C284.125 108.035 284.976 108.099 285.633 108.555C285.997 108.808 286.375 109.041 286.762 109.252C287.467 109.637 287.906 110.372 287.881 111.174L287.797 113.908L296.706 114.185L296.791 111.45C296.816 110.65 297.306 109.954 298.029 109.612C298.227 109.519 298.424 109.419 298.62 109.314C298.813 109.211 299.004 109.102 299.191 108.99C299.878 108.575 300.731 108.551 301.415 108.974L303.734 110.415ZM296.192 104.791C292.639 106.696 288.218 105.361 286.312 101.808C284.407 98.256 285.738 93.828 289.291 91.923C292.844 90.017 297.275 91.355 299.18 94.907C301.085 98.461 299.744 102.886 296.192 104.791Z" fill="#EBEBEB"/>
<path d="M47.0211 196.231L51.7191 188.657L49.3991 187.22C48.7171 186.797 48.3471 186.026 48.4161 185.227C48.4541 184.784 48.4681 184.34 48.4581 183.894C48.4411 183.093 48.8591 182.349 49.5641 181.971L51.9691 180.681L47.7551 172.825L45.3521 174.114C44.6461 174.493 43.7951 174.429 43.1381 173.972C42.7721 173.717 42.3931 173.482 42.0051 173.269C41.3011 172.884 40.8631 172.149 40.8881 171.348L40.9741 168.62L32.0661 168.343L31.9841 171.08C31.9601 171.883 31.4681 172.581 30.7421 172.925C30.5451 173.017 30.3491 173.116 30.1561 173.22C29.9621 173.324 29.7721 173.432 29.5861 173.545C28.9021 173.958 28.0521 173.982 27.3731 173.561L25.0371 172.114L20.3391 179.688L22.6631 181.13C23.3441 181.553 23.7141 182.325 23.6441 183.125C23.6061 183.565 23.5921 184.008 23.6001 184.452C23.6171 185.25 23.1991 185.995 22.4941 186.372L20.0891 187.662L24.3031 195.518L26.7081 194.229C27.4121 193.851 28.2631 193.914 28.9201 194.37C29.2851 194.623 29.6621 194.856 30.0501 195.067C30.7551 195.452 31.1931 196.187 31.1691 196.989L31.0851 199.723L39.9931 200L40.0781 197.265C40.1031 196.466 40.5941 195.77 41.3171 195.428C41.5151 195.335 41.7121 195.235 41.9071 195.131C42.1011 195.027 42.2911 194.918 42.4781 194.806C43.1661 194.391 44.0191 194.367 44.7021 194.791L47.0211 196.231ZM39.4781 190.607C35.9261 192.512 31.5051 191.177 29.5991 187.625C27.6931 184.072 29.0241 179.645 32.5781 177.739C36.1311 175.833 40.5611 177.171 42.4671 180.723C44.3721 184.277 43.0311 188.701 39.4781 190.607Z" fill="#EBEBEB"/>
<path d="M138.263 51.177L135.142 45.769L133.487 46.725C133.001 47.007 132.402 46.979 131.931 46.672C131.671 46.502 131.401 46.347 131.123 46.205C130.623 45.951 130.302 45.446 130.302 44.885V42.975H124.057V44.886C124.057 45.446 123.735 45.952 123.236 46.205C122.957 46.347 122.687 46.503 122.427 46.673C121.956 46.979 121.358 47.007 120.871 46.726L119.216 45.77L116.096 51.178L117.758 52.135C118.246 52.415 118.514 52.95 118.485 53.512C118.477 53.664 118.473 53.818 118.473 53.972C118.473 54.126 118.477 54.279 118.485 54.431C118.514 54.991 118.247 55.523 117.763 55.803L116.096 56.766L119.216 62.174L120.876 61.217C121.363 60.936 121.962 60.964 122.433 61.272C122.692 61.441 122.96 61.596 123.238 61.738C123.737 61.992 124.057 62.497 124.057 63.057V64.969H130.303V63.057C130.303 62.497 130.623 61.992 131.122 61.738C131.399 61.596 131.668 61.441 131.927 61.272C132.397 60.964 132.997 60.936 133.483 61.217L135.143 62.174L138.263 56.766L136.604 55.809C136.118 55.528 135.851 54.995 135.879 54.435C135.887 54.282 135.89 54.128 135.89 53.972C135.89 53.818 135.886 53.665 135.879 53.513C135.85 52.951 136.118 52.415 136.606 52.135L138.263 51.177ZM132.294 53.972C132.294 56.796 130.006 59.084 127.182 59.084C124.358 59.084 122.065 56.796 122.065 53.972C122.065 51.147 124.358 48.855 127.182 48.855C130.006 48.855 132.294 51.147 132.294 53.972Z" fill="#EBEBEB"/>
<path d="M36.8901 208.464C26.4611 218.674 24.7111 234.469 26.9091 248.304C26.9661 248.617 27.4521 248.532 27.4521 248.237C27.4521 245.088 27.3571 241.967 27.3661 238.855C27.4231 238.713 27.4711 238.579 27.5281 238.436C30.2491 236.457 32.7521 234.221 34.3031 231.157C36.0451 227.732 36.7291 223.868 38.0621 220.291C38.1861 219.948 37.8201 220.049 37.5811 220.225C31.2381 224.903 29.2161 229.939 27.3961 236.666C27.4811 233.174 27.7481 229.682 28.4991 226.19C29.8701 219.806 32.5811 213.478 37.1681 208.74C37.3381 208.559 37.0721 208.283 36.8901 208.464Z" fill="#263238"/>
<path d="M38.8501 209.654C40.6441 209.715 41.7691 212.582 43.1671 213.419C43.9071 213.864 44.6281 213.837 45.1471 213.108C46.5331 211.174 44.6321 208.788 42.8441 207.454C44.1231 207.98 45.1831 208.903 46.5611 209.165C47.3961 209.318 48.0451 209.009 48.2401 208.16C48.8471 205.524 45.5401 204.351 43.2711 204.296C44.3711 203.531 47.5241 201.452 45.8491 200.43C44.1511 199.404 40.4521 202.376 39.2451 203.355C37.4721 204.794 35.3571 206.944 35.2771 209.194C35.1731 211.822 37.4701 210.206 38.8501 209.654Z" fill="#53C4CD"/>
<path opacity="0.1" d="M38.8501 209.654C40.6441 209.715 41.7691 212.582 43.1671 213.419C43.9071 213.864 44.6281 213.837 45.1471 213.108C46.5331 211.174 44.6321 208.788 42.8441 207.454C44.1231 207.98 45.1831 208.903 46.5611 209.165C47.3961 209.318 48.0451 209.009 48.2401 208.16C48.8471 205.524 45.5401 204.351 43.2711 204.296C44.3711 203.531 47.5241 201.452 45.8491 200.43C44.1511 199.404 40.4521 202.376 39.2451 203.355C37.4721 204.794 35.3571 206.944 35.2771 209.194C35.1731 211.822 37.4701 210.206 38.8501 209.654Z" fill="black"/>
<path d="M38.3319 210.097C40.6259 209.054 45.0319 210.555 45.4069 209.687C46.1659 207.92 42.6449 206.707 40.7439 206.473C42.4949 205.999 45.8489 205.243 45.7459 203.554C45.6199 201.493 40.6009 203.265 38.0609 205.213C34.8609 207.667 34.8819 210.035 35.4109 210.509C36.1359 211.16 37.9529 210.269 38.3319 210.097Z" fill="#53C4CD"/>
<path d="M13.1399 207.453C23.9489 217.259 26.2999 232.976 24.6299 246.885C24.5849 247.201 24.0969 247.134 24.0859 246.839C23.9659 243.692 23.9419 240.569 23.8139 237.461C23.7519 237.321 23.6989 237.19 23.6359 237.049C20.8419 235.174 18.2559 233.036 16.5899 230.033C14.7199 226.676 13.8879 222.842 12.4209 219.317C12.2849 218.98 12.6529 219.066 12.8989 219.233C19.4159 223.667 21.6289 228.622 23.7029 235.275C23.4849 231.788 23.0859 228.309 22.2019 224.848C20.5899 218.52 17.6399 212.3 12.8769 207.74C12.6969 207.566 12.9529 207.279 13.1399 207.453Z" fill="#263238"/>
<path d="M11.2271 208.717C9.43705 208.846 8.42305 211.754 7.05705 212.643C6.33505 213.117 5.61405 213.117 5.06705 212.408C3.60905 210.528 5.41705 208.072 7.15305 206.67C5.89505 207.244 4.87105 208.207 3.50405 208.522C2.67505 208.706 2.01504 208.422 1.78804 207.582C1.08104 204.97 4.34104 203.672 6.60504 203.531C5.47704 202.809 2.24804 200.851 3.88304 199.766C5.53904 198.676 9.35004 201.505 10.592 202.438C12.419 203.808 14.614 205.876 14.78 208.122C14.984 210.743 12.6281 209.215 11.2271 208.717Z" fill="#53C4CD"/>
<path opacity="0.1" d="M11.2271 208.717C9.43705 208.846 8.42305 211.754 7.05705 212.643C6.33505 213.117 5.61405 213.117 5.06705 212.408C3.60905 210.528 5.41705 208.072 7.15305 206.67C5.89505 207.244 4.87105 208.207 3.50405 208.522C2.67505 208.706 2.01504 208.422 1.78804 207.582C1.08104 204.97 4.34104 203.672 6.60504 203.531C5.47704 202.809 2.24804 200.851 3.88304 199.766C5.53904 198.676 9.35004 201.505 10.592 202.438C12.419 203.808 14.614 205.876 14.78 208.122C14.984 210.743 12.6281 209.215 11.2271 208.717Z" fill="black"/>
<path d="M11.7631 209.139C9.43108 208.184 5.08408 209.852 4.67708 208.999C3.85208 207.262 7.32408 205.917 9.21408 205.61C7.44708 205.203 4.06607 204.576 4.10507 202.885C4.15207 200.82 9.23508 202.4 11.8481 204.25C15.1381 206.58 15.2081 208.947 14.6971 209.441C13.9971 210.119 12.1481 209.297 11.7631 209.139Z" fill="#53C4CD"/>
<path d="M24.1941 233.351C24.9921 238.519 25.9821 243.862 27.5511 248.855C27.7011 249.31 28.3761 249.193 28.3061 248.703C27.5961 243.925 26.3021 239.235 25.5921 234.458C24.8711 229.623 24.4851 224.722 24.7621 219.833C25.2171 211.782 27.4041 203.217 32.6581 196.917C32.7731 196.768 32.5281 196.557 32.4101 196.695C21.8911 208.959 23.5651 223.996 23.5741 225.344C22.0851 220.266 20.5501 214.447 14.9181 209.277C14.6761 209.053 14.4861 209.159 14.5261 209.538C15.5331 218.956 18.1521 223.872 23.6121 228.907C23.7651 230.399 23.9571 231.884 24.1941 233.351Z" fill="#263238"/>
<path d="M32.751 198.327C34.643 197.487 37.253 199.896 39.126 200.061C40.117 200.15 40.851 199.759 41.023 198.741C41.488 196.037 38.314 194.519 35.787 194.034C37.379 193.936 38.944 194.36 40.505 193.938C41.449 193.677 41.966 193.029 41.741 192.051C41.044 189.009 37.023 189.457 34.641 190.542C35.397 189.195 37.621 185.451 35.369 185.234C33.092 185.023 30.75 189.969 29.99 191.592C28.874 193.978 27.762 197.273 28.812 199.649C30.028 202.427 31.596 199.594 32.751 198.327Z" fill="#53C4CD"/>
<path opacity="0.1" d="M32.751 198.327C34.643 197.487 37.253 199.896 39.126 200.061C40.117 200.15 40.851 199.759 41.023 198.741C41.488 196.037 38.314 194.519 35.787 194.034C37.379 193.936 38.944 194.36 40.505 193.938C41.449 193.677 41.966 193.029 41.741 192.051C41.044 189.009 37.023 189.457 34.641 190.542C35.397 189.195 37.621 185.451 35.369 185.234C33.092 185.023 30.75 189.969 29.99 191.592C28.874 193.978 27.762 197.273 28.812 199.649C30.028 202.427 31.596 199.594 32.751 198.327Z" fill="black"/>
<path d="M32.4351 199.048C34.2901 196.811 39.6181 196.15 39.5691 195.061C39.4681 192.846 35.2041 193.361 33.1131 194.073C34.6911 192.7 37.7901 190.228 36.8341 188.528C35.6651 186.452 31.3511 190.818 29.6961 194.118C27.6101 198.275 28.8231 200.721 29.6121 200.946C30.6931 201.255 32.1291 199.417 32.4351 199.048Z" fill="#53C4CD"/>
<path d="M17.274 236.185L12.635 271.629H40.864C40.282 268.488 35.028 236.145 35.028 236.145L17.274 236.185Z" fill="#53C4CD"/>
<path d="M0.612061 271.748L41.8341 271.554L83.0561 271.484L165.5 271.35L247.944 271.483L289.165 271.553L330.388 271.748L289.165 271.944L247.944 272.014L165.5 272.146L83.0561 272.013L41.8341 271.942L0.612061 271.748Z" fill="#263238"/>
<path d="M165.5 341.152C231.193 341.152 284.448 333.622 284.448 324.334C284.448 315.046 231.193 307.516 165.5 307.516C99.807 307.516 46.553 315.046 46.553 324.334C46.553 333.622 99.807 341.152 165.5 341.152Z" fill="#EBEBEB"/>
<path d="M91.7429 147.682L86.7879 128.187L47.6559 138.133L42.4839 117.784L73.7559 46.5131L89.2669 42.5701L104.348 101.909L116.87 98.7271L122.078 119.218L109.555 122.4L114.51 141.895L91.7429 147.682ZM64.9319 111.927L84.2849 107.009L77.8839 81.8221L64.9319 111.927Z" fill="#263238"/>
<path d="M203.821 82.602C203.821 89.063 202.841 95.009 200.884 100.441C198.925 105.874 196.233 110.572 192.808 114.537C189.38 118.501 185.343 121.584 180.695 123.786C176.045 125.989 170.979 127.09 165.498 127.09C160.015 127.09 154.927 125.989 150.229 123.786C145.53 121.584 141.467 118.5 138.042 114.537C134.615 110.572 131.949 105.874 130.041 100.441C128.132 95.009 127.178 89.063 127.178 82.602C127.178 76.142 128.132 70.196 130.041 64.764C131.95 59.331 134.615 54.633 138.042 50.669C141.467 46.704 145.53 43.598 150.229 41.346C154.927 39.095 160.015 37.968 165.498 37.968C170.979 37.968 176.044 39.095 180.695 41.346C185.343 43.598 189.38 46.704 192.808 50.669C196.233 54.633 198.925 59.331 200.884 64.764C202.841 70.196 203.821 76.142 203.821 82.602ZM180.182 82.602C180.182 75.752 178.81 70.196 176.07 65.938C173.328 61.68 169.806 59.551 165.499 59.551C160.996 59.551 157.399 61.68 154.708 65.938C152.015 70.196 150.67 75.752 150.67 82.602C150.67 89.455 152.015 94.986 154.708 99.193C157.399 103.403 160.996 105.507 165.499 105.507C169.806 105.507 173.328 103.404 176.07 99.193C178.811 94.986 180.182 89.455 180.182 82.602Z" fill="#263238"/>
<path d="M245.973 143.925L249.189 124.069L209.333 117.612L212.691 96.886L269.755 43.959L285.553 46.518L275.761 106.956L288.516 109.022L285.135 129.892L272.38 127.826L269.163 147.682L245.973 143.925ZM235.614 100.452L255.324 103.645L259.48 77.992L235.614 100.452Z" fill="#263238"/>
<path d="M132.523 23.824C130.846 23.824 129.326 23.496 127.961 22.841C126.596 22.186 125.425 21.315 124.448 20.23C123.469 19.145 122.712 17.904 122.175 16.507C121.638 15.111 121.369 13.681 121.369 12.219C121.369 10.694 121.653 9.23201 122.223 7.83501C122.792 6.43901 123.577 5.20302 124.576 4.12802C125.575 3.05302 126.763 2.19901 128.138 1.56401C129.513 0.931011 131.007 0.614014 132.619 0.614014C134.274 0.614014 135.783 0.952013 137.149 1.62901C138.513 2.30601 139.679 3.19202 140.646 4.28902C141.613 5.38502 142.365 6.63203 142.903 8.02803C143.44 9.42603 143.709 10.844 143.709 12.284C143.709 13.811 143.429 15.265 142.871 16.652C142.312 18.038 141.538 19.263 140.55 20.327C139.561 21.391 138.379 22.24 137.004 22.873C135.628 23.507 134.135 23.824 132.523 23.824ZM125.882 12.219C125.882 13.207 126.032 14.164 126.333 15.087C126.633 16.011 127.068 16.829 127.638 17.537C128.207 18.247 128.906 18.816 129.734 19.246C130.56 19.676 131.501 19.891 132.555 19.891C133.629 19.891 134.58 19.67 135.407 19.23C136.235 18.79 136.933 18.204 137.503 17.473C138.072 16.742 138.502 15.92 138.793 15.007C139.083 14.093 139.227 13.164 139.227 12.218C139.227 11.23 139.071 10.273 138.76 9.34901C138.448 8.42501 138.007 7.609 137.438 6.899C136.869 6.19 136.17 5.62602 135.344 5.20702C134.516 4.78802 133.586 4.57802 132.555 4.57802C131.48 4.57802 130.524 4.79802 129.686 5.23802C128.848 5.67902 128.15 6.25902 127.591 6.97902C127.032 7.69902 126.608 8.516 126.317 9.429C126.027 10.344 125.882 11.273 125.882 12.219Z" fill="#263238"/>
<path d="M154.508 23.985C153.133 23.985 151.897 23.749 150.802 23.276C149.705 22.803 148.776 22.163 148.013 21.358C147.25 20.552 146.664 19.622 146.255 18.569C145.847 17.516 145.643 16.409 145.643 15.249C145.643 14.067 145.847 12.95 146.255 11.896C146.663 10.844 147.25 9.91397 148.013 9.10797C148.776 8.30197 149.705 7.66297 150.802 7.18997C151.897 6.71697 153.133 6.47998 154.508 6.47998C155.883 6.47998 157.114 6.71697 158.2 7.18997C159.284 7.66297 160.209 8.30197 160.972 9.10797C161.735 9.91397 162.321 10.844 162.729 11.896C163.137 12.95 163.341 14.067 163.341 15.249C163.341 16.409 163.137 17.516 162.729 18.569C162.321 19.622 161.741 20.551 160.989 21.358C160.236 22.164 159.312 22.804 158.217 23.276C157.119 23.748 155.883 23.985 154.508 23.985ZM150.091 15.249C150.091 16.001 150.205 16.683 150.43 17.295C150.656 17.908 150.967 18.44 151.364 18.891C151.762 19.342 152.229 19.692 152.766 19.939C153.303 20.187 153.884 20.31 154.508 20.31C155.131 20.31 155.711 20.187 156.248 19.939C156.785 19.693 157.253 19.343 157.65 18.891C158.047 18.44 158.36 17.903 158.585 17.279C158.81 16.656 158.923 15.969 158.923 15.217C158.923 14.486 158.81 13.81 158.585 13.186C158.359 12.563 158.047 12.025 157.65 11.574C157.252 11.122 156.784 10.773 156.248 10.526C155.711 10.279 155.131 10.155 154.508 10.155C153.884 10.155 153.303 10.284 152.766 10.542C152.229 10.8 151.762 11.155 151.364 11.606C150.966 12.057 150.655 12.594 150.43 13.218C150.204 13.842 150.091 14.518 150.091 15.249Z" fill="#263238"/>
<path d="M176.363 23.985C175.031 23.985 173.87 23.69 172.882 23.098C171.894 22.508 171.12 21.708 170.561 20.697V30.529H166.241V6.77097H170.013V9.67096C170.636 8.68296 171.442 7.90398 172.431 7.33398C173.419 6.76498 174.558 6.47998 175.847 6.47998C176.986 6.47998 178.039 6.71198 179.006 7.17398C179.973 7.63598 180.806 8.25897 181.505 9.04297C182.203 9.82797 182.751 10.752 183.149 11.816C183.547 12.879 183.746 14.003 183.746 15.185C183.746 16.41 183.563 17.56 183.197 18.634C182.832 19.709 182.321 20.644 181.666 21.439C181.01 22.234 180.231 22.857 179.329 23.308C178.427 23.759 177.438 23.985 176.363 23.985ZM174.913 20.31C175.558 20.31 176.154 20.171 176.702 19.891C177.25 19.612 177.717 19.236 178.104 18.763C178.491 18.291 178.792 17.742 179.007 17.118C179.222 16.495 179.329 15.851 179.329 15.185C179.329 14.475 179.211 13.815 178.975 13.203C178.738 12.59 178.411 12.058 177.992 11.607C177.573 11.156 177.078 10.801 176.509 10.543C175.939 10.285 175.322 10.156 174.656 10.156C174.248 10.156 173.829 10.226 173.399 10.366C172.969 10.505 172.572 10.704 172.206 10.963C171.841 11.22 171.514 11.522 171.223 11.865C170.934 12.209 170.713 12.586 170.563 12.993V16.959C170.95 17.926 171.541 18.726 172.336 19.36C173.129 19.993 173.989 20.31 174.913 20.31Z" fill="#263238"/>
<path d="M193.062 23.985C191.644 23.985 190.257 23.759 188.904 23.308C187.55 22.858 186.389 22.212 185.422 21.374L187.034 18.666C188.066 19.397 189.071 19.95 190.048 20.326C191.026 20.703 191.998 20.89 192.966 20.89C193.824 20.89 194.502 20.729 194.997 20.407C195.49 20.084 195.738 19.622 195.738 19.021C195.738 18.419 195.448 17.979 194.867 17.699C194.287 17.42 193.341 17.098 192.03 16.732C190.935 16.431 189.999 16.141 189.225 15.861C188.451 15.582 187.828 15.265 187.356 14.91C186.882 14.556 186.539 14.147 186.324 13.685C186.108 13.223 186.002 12.669 186.002 12.025C186.002 11.165 186.168 10.392 186.502 9.70303C186.835 9.01603 187.302 8.43004 187.904 7.94604C188.506 7.46204 189.21 7.09205 190.015 6.83405C190.821 6.57705 191.696 6.44702 192.642 6.44702C193.91 6.44702 195.097 6.63003 196.205 6.99603C197.311 7.36103 198.327 7.95204 199.251 8.76904L197.509 11.38C196.65 10.735 195.818 10.263 195.011 9.96204C194.205 9.66104 193.404 9.51102 192.61 9.51102C191.879 9.51102 191.266 9.66204 190.772 9.96204C190.277 10.263 190.03 10.746 190.03 11.413C190.03 11.713 190.089 11.961 190.208 12.154C190.325 12.347 190.514 12.519 190.772 12.669C191.03 12.82 191.368 12.965 191.787 13.104C192.206 13.245 192.727 13.389 193.35 13.539C194.511 13.84 195.504 14.141 196.332 14.442C197.159 14.743 197.836 15.087 198.362 15.473C198.889 15.86 199.276 16.306 199.524 16.81C199.77 17.315 199.894 17.923 199.894 18.632C199.894 20.287 199.282 21.593 198.056 22.549C196.834 23.507 195.168 23.985 193.062 23.985Z" fill="#263238"/>
<path d="M203.538 15.0551V0.549072H207.858V15.0551H203.538ZM203.538 23.6631V18.7951H207.858V23.6631H203.538Z" fill="#263238"/>
<path d="M181.94 216.448H153.601V218.77H181.94V216.448Z" fill="#37474F"/>
<path d="M181.94 219.472H153.601V221.793H181.94V219.472Z" fill="#37474F"/>
<path d="M181.94 222.496H153.601V224.818H181.94V222.496Z" fill="#37474F"/>
<path d="M181.94 225.52H153.601V227.841H181.94V225.52Z" fill="#37474F"/>
<path d="M181.94 228.544H153.601V230.865H181.94V228.544Z" fill="#37474F"/>
<path d="M194.207 288.866H140.329V291.187H194.207V288.866Z" fill="#37474F"/>
<path d="M194.207 291.89H140.329V294.211H194.207V291.89Z" fill="#37474F"/>
<path d="M194.207 294.913H140.329V297.235H194.207V294.913Z" fill="#37474F"/>
<path d="M194.207 297.937H140.329V300.258H194.207V297.937Z" fill="#37474F"/>
<path d="M194.207 300.961H140.329V303.283H194.207V300.961Z" fill="#37474F"/>
<path d="M116.69 197.259C116.716 196.945 104.897 192.986 104.897 192.986L105.596 152.379L121.268 149.017L116.69 197.259Z" fill="#53C4CD"/>
<path opacity="0.2" d="M116.69 197.259C116.716 196.945 104.897 192.986 104.897 192.986L105.596 152.379L121.268 149.017L116.69 197.259Z" fill="black"/>
<path d="M224.942 213.198C225.025 212.894 237.485 213.244 237.485 213.244L250.804 174.877L237.247 166.327L224.942 213.198Z" fill="#53C4CD"/>
<path opacity="0.2" d="M224.942 213.198C225.025 212.894 237.485 213.244 237.485 213.244L250.804 174.877L237.247 166.327L224.942 213.198Z" fill="black"/>
<path d="M114.414 212.212C114.414 212.212 118.796 146.538 122.639 124.934C122.639 124.934 201.974 130.934 244.802 147.303C244.802 147.303 222.722 224.013 221.579 227.82C221.579 227.82 165.713 216.815 114.414 212.212Z" fill="#53C4CD"/>
<path opacity="0.1" d="M185.228 133.704C183.939 141.611 182.633 149.516 181.282 157.413L177.193 181.097L176.973 180.763L203.555 187.077L216.832 190.295L230.094 193.576L216.762 190.592L203.445 187.546L176.839 181.331L176.57 181.268L176.619 180.996L180.852 157.337C182.275 149.453 183.744 141.577 185.228 133.704Z" fill="black"/>
<path opacity="0.1" d="M182.311 138.211C182.326 138.935 181.748 139.68 180.918 139.753C180.516 139.791 180.079 139.662 179.751 139.377C179.424 139.093 179.229 138.654 179.226 138.211C179.229 137.768 179.423 137.328 179.751 137.043C180.077 136.756 180.516 136.63 180.918 136.667C181.749 136.74 182.326 137.486 182.311 138.211ZM182.311 138.211C182.308 137.845 182.146 137.486 181.874 137.256C181.601 137.025 181.244 136.931 180.919 136.968C180.249 137.046 179.815 137.647 179.825 138.211C179.815 138.775 180.248 139.379 180.919 139.455C181.244 139.492 181.602 139.397 181.875 139.167C182.146 138.935 182.308 138.576 182.311 138.211Z" fill="black"/>
<path opacity="0.1" d="M180.918 147.982C180.933 148.707 180.355 149.452 179.525 149.524C179.123 149.562 178.685 149.434 178.358 149.149C178.031 148.864 177.835 148.425 177.833 147.982C177.835 147.539 178.029 147.1 178.357 146.815C178.684 146.528 179.123 146.401 179.525 146.439C180.356 146.512 180.933 147.259 180.918 147.982ZM180.918 147.982C180.915 147.617 180.753 147.258 180.481 147.027C180.208 146.796 179.85 146.702 179.526 146.74C178.856 146.817 178.422 147.418 178.432 147.982C178.421 148.547 178.855 149.151 179.526 149.226C179.85 149.263 180.209 149.169 180.482 148.938C180.754 148.708 180.915 148.348 180.918 147.982Z" fill="black"/>
<path opacity="0.1" d="M179.202 158.308C179.217 159.032 178.639 159.778 177.809 159.849C177.407 159.888 176.97 159.76 176.642 159.474C176.315 159.189 176.12 158.751 176.117 158.308C176.12 157.865 176.314 157.425 176.642 157.14C176.968 156.853 177.407 156.727 177.809 156.764C178.641 156.838 179.218 157.583 179.202 158.308ZM179.202 158.308C179.199 157.942 179.037 157.583 178.765 157.352C178.492 157.122 178.135 157.028 177.81 157.065C177.14 157.143 176.706 157.743 176.716 158.308C176.705 158.872 177.139 159.476 177.81 159.552C178.135 159.589 178.493 159.494 178.766 159.264C179.037 159.032 179.199 158.673 179.202 158.308Z" fill="black"/>
<path opacity="0.1" d="M177.487 168.633C177.502 169.358 176.923 170.102 176.093 170.175C175.691 170.212 175.254 170.085 174.927 169.8C174.6 169.515 174.404 169.076 174.402 168.633C174.403 168.19 174.599 167.75 174.926 167.465C175.252 167.178 175.691 167.052 176.093 167.09C176.925 167.162 177.502 167.908 177.487 168.633ZM177.487 168.633C177.484 168.267 177.322 167.908 177.049 167.678C176.776 167.447 176.418 167.353 176.093 167.39C175.424 167.468 174.99 168.069 174.999 168.633C174.989 169.197 175.422 169.801 176.093 169.877C176.418 169.914 176.777 169.82 177.049 169.589C177.322 169.358 177.484 168.998 177.487 168.633Z" fill="black"/>
<path opacity="0.1" d="M183.333 185.1C183.348 185.824 182.77 186.569 181.94 186.641C181.537 186.679 181.1 186.551 180.773 186.266C180.446 185.981 180.25 185.543 180.248 185.1C180.249 184.657 180.444 184.217 180.772 183.932C181.098 183.645 181.537 183.519 181.94 183.556C182.77 183.629 183.347 184.375 183.333 185.1ZM183.333 185.1C183.33 184.734 183.168 184.375 182.895 184.144C182.622 183.914 182.264 183.82 181.94 183.857C181.27 183.935 180.836 184.536 180.846 185.1C180.835 185.664 181.268 186.268 181.94 186.344C182.264 186.381 182.623 186.286 182.896 186.055C183.168 185.824 183.329 185.465 183.333 185.1Z" fill="black"/>
<path opacity="0.1" d="M193.079 187.477C193.094 188.202 192.515 188.947 191.686 189.019C191.283 189.056 190.846 188.928 190.519 188.644C190.192 188.359 189.996 187.92 189.994 187.477C189.996 187.034 190.191 186.594 190.518 186.309C190.844 186.022 191.283 185.896 191.686 185.934C192.517 186.007 193.094 186.752 193.079 187.477ZM193.079 187.477C193.076 187.111 192.914 186.752 192.642 186.522C192.369 186.291 192.011 186.197 191.686 186.234C191.017 186.312 190.583 186.913 190.592 187.477C190.582 188.041 191.015 188.645 191.686 188.721C192.011 188.758 192.369 188.664 192.642 188.432C192.914 188.202 193.076 187.842 193.079 187.477Z" fill="black"/>
<path opacity="0.1" d="M202.826 189.855C202.84 190.58 202.262 191.324 201.432 191.397C201.03 191.434 200.593 191.307 200.266 191.022C199.938 190.737 199.743 190.298 199.741 189.855C199.743 189.412 199.937 188.972 200.265 188.688C200.591 188.4 201.03 188.274 201.432 188.312C202.263 188.384 202.84 189.13 202.826 189.855ZM202.826 189.855C202.822 189.489 202.66 189.13 202.388 188.9C202.115 188.669 201.758 188.575 201.433 188.612C200.764 188.69 200.329 189.291 200.339 189.855C200.329 190.419 200.762 191.023 201.433 191.099C201.758 191.136 202.116 191.042 202.389 190.81C202.66 190.58 202.822 190.22 202.826 189.855Z" fill="black"/>
<path opacity="0.1" d="M212.572 192.232C212.587 192.957 212.008 193.701 211.178 193.774C210.776 193.811 210.339 193.685 210.012 193.399C209.684 193.114 209.489 192.675 209.487 192.232C209.489 191.789 209.683 191.35 210.011 191.065C210.337 190.777 210.776 190.651 211.178 190.689C212.01 190.761 212.586 191.508 212.572 192.232ZM212.572 192.232C212.568 191.867 212.406 191.508 212.134 191.277C211.861 191.046 211.504 190.952 211.179 190.99C210.51 191.067 210.075 191.668 210.085 192.232C210.075 192.796 210.508 193.4 211.179 193.476C211.504 193.513 211.862 193.419 212.135 193.188C212.406 192.957 212.568 192.598 212.572 192.232Z" fill="black"/>
<path opacity="0.1" d="M222.314 194.716C222.273 195.44 221.639 196.138 220.806 196.146C220.402 196.154 219.976 195.992 219.671 195.683C219.367 195.373 219.205 194.921 219.237 194.479C219.273 194.038 219.501 193.615 219.85 193.356C220.198 193.095 220.645 193.002 221.043 193.071C221.867 193.207 222.384 193.996 222.314 194.716ZM222.314 194.716C222.338 194.352 222.204 193.981 221.95 193.73C221.696 193.479 221.346 193.357 221.02 193.37C220.347 193.396 219.867 193.961 219.833 194.525C219.779 195.087 220.165 195.722 220.829 195.85C221.149 195.912 221.514 195.846 221.804 195.636C222.093 195.427 222.282 195.081 222.314 194.716Z" fill="black"/>
<path opacity="0.1" d="M175.771 178.958C175.785 179.683 175.208 180.428 174.378 180.5C173.976 180.538 173.538 180.411 173.211 180.125C172.884 179.84 172.688 179.401 172.686 178.958C172.688 178.515 172.883 178.076 173.21 177.791C173.537 177.504 173.976 177.377 174.378 177.415C175.209 177.488 175.786 178.234 175.771 178.958ZM175.771 178.958C175.768 178.593 175.606 178.234 175.333 178.003C175.06 177.772 174.703 177.678 174.378 177.716C173.708 177.793 173.274 178.394 173.284 178.958C173.273 179.522 173.707 180.127 174.378 180.202C174.703 180.239 175.061 180.145 175.333 179.913C175.607 179.683 175.768 179.324 175.771 178.958Z" fill="black"/>
<path opacity="0.2" d="M159.358 196.067C168.61 187.748 169.366 173.504 161.047 164.252C152.729 155 138.485 154.244 129.233 162.562C119.981 170.881 119.225 185.125 127.543 194.377C135.862 203.629 150.106 204.385 159.358 196.067Z" fill="black"/>
<path d="M161.185 185.711C164.718 176.379 160.016 165.951 150.685 162.418C141.353 158.886 130.924 163.588 127.392 172.919C123.86 182.251 128.561 192.68 137.893 196.212C147.225 199.744 157.653 195.043 161.185 185.711Z" fill="#263238"/>
<path d="M143.206 172.672L138.983 171.988L138.299 176.212L142.522 176.896L143.206 172.672Z" fill="#53C4CD"/>
<path d="M139.666 167.765L135.443 167.081L134.759 171.304L138.982 171.988L139.666 167.765Z" fill="#53C4CD"/>
<path d="M156.561 170.501L152.338 169.817L151.653 174.041L155.877 174.725L156.561 170.501Z" fill="#53C4CD"/>
<path d="M136.945 184.564L132.721 183.88L132.037 188.103L136.261 188.787L136.945 184.564Z" fill="#53C4CD"/>
<path d="M153.84 187.3L149.616 186.616L148.932 190.84L153.156 191.524L153.84 187.3Z" fill="#53C4CD"/>
<path d="M141.853 181.025L137.629 180.341L136.945 184.564L141.169 185.248L141.853 181.025Z" fill="#53C4CD"/>
<path d="M146.754 177.533L142.53 176.849L141.846 181.072L146.069 181.756L146.754 177.533Z" fill="#53C4CD"/>
<path d="M151.654 174.041L147.43 173.356L146.746 177.58L150.97 178.264L151.654 174.041Z" fill="#53C4CD"/>
<path d="M150.305 182.39L146.081 181.706L145.397 185.93L149.621 186.614L150.305 182.39Z" fill="#53C4CD"/>
<path d="M222.18 203.023C230.066 193.399 228.657 179.204 219.033 171.318C209.409 163.433 195.215 164.842 187.329 174.466C179.443 184.09 180.852 198.284 190.476 206.17C200.1 214.056 214.294 212.646 222.18 203.023Z" fill="#53C4CD"/>
<path opacity="0.2" d="M222.18 203.023C230.066 193.399 228.657 179.204 219.033 171.318C209.409 163.433 195.215 164.842 187.329 174.466C179.443 184.09 180.852 198.284 190.476 206.17C200.1 214.056 214.294 212.646 222.18 203.023Z" fill="black"/>
<path opacity="0.2" d="M226.675 193.966C226.571 194.41 226.453 194.838 226.32 195.267L182.407 185.901C182.511 185.117 182.651 184.334 182.836 183.543C185.712 171.441 197.857 163.96 209.967 166.835C222.069 169.711 229.551 181.857 226.675 193.966Z" fill="black"/>
<path d="M211.716 205.428C220.923 201.582 225.269 190.999 221.422 181.792C217.576 172.585 206.993 168.24 197.786 172.086C188.579 175.933 184.234 186.515 188.08 195.722C191.927 204.929 202.509 209.275 211.716 205.428Z" fill="#263238"/>
<path d="M209.303 178.883L205.14 177.893L200.216 198.614L204.379 199.603L209.303 178.883Z" fill="#53C4CD"/>
<path d="M227.982 193.543L181.857 182.58C184.883 169.846 197.664 161.978 210.399 165.004C223.134 168.031 231.009 180.808 227.982 193.543Z" fill="#53C4CD"/>
<path opacity="0.2" d="M227.982 193.543L181.857 182.58C184.883 169.846 197.664 161.978 210.399 165.004C223.134 168.031 231.009 180.808 227.982 193.543Z" fill="black"/>
<path opacity="0.1" d="M165.557 202.146C165.673 200.345 166.335 198.518 167.641 197.074C168.285 196.346 169.144 195.775 170.091 195.427C171.042 195.077 172.07 195.016 173.044 195.099C174.036 195.214 175.049 195.564 175.876 196.189C176.686 196.828 177.308 197.66 177.673 198.556C178.426 200.342 178.508 202.251 178.143 204.021C177.843 202.252 177.386 200.534 176.555 199.124C175.731 197.703 174.427 196.819 172.873 196.682C171.289 196.485 169.742 196.91 168.496 197.963C167.251 199.012 166.3 200.515 165.557 202.146Z" fill="black"/>
<path d="M120.585 156.195C120.772 153.789 121.043 151.393 121.271 148.992C121.527 146.595 121.79 144.198 122.082 141.807C122.358 139.413 122.67 137.023 122.977 134.633C123.277 132.242 123.623 129.857 123.944 127.469L124.029 126.831L124.676 126.872C129.874 127.199 135.061 127.619 140.241 128.152C142.83 128.418 145.417 128.719 148 129.051C150.578 129.421 153.16 129.762 155.724 130.232L140.149 129.268L124.59 128.261L125.322 127.664C124.969 130.048 124.64 132.435 124.266 134.815C123.897 137.197 123.534 139.579 123.137 141.956C122.753 144.335 122.343 146.71 121.924 149.084C121.477 151.454 121.073 153.831 120.585 156.195Z" fill="white"/>
<path d="M124.332 174.402C124.855 171.509 126.17 168.752 127.937 166.351C128.376 165.747 128.877 165.189 129.358 164.614C129.879 164.076 130.421 163.556 130.955 163.029C131.539 162.555 132.128 162.085 132.726 161.629C133.362 161.226 133.99 160.805 134.637 160.418C135.317 160.091 135.994 159.754 136.681 159.443L138.821 158.703L141.036 158.245C141.78 158.137 142.536 158.114 143.282 158.058C146.286 157.98 149.242 158.621 151.956 159.72C149.068 159.179 146.19 158.879 143.353 159.15C140.523 159.413 137.773 160.259 135.315 161.644C132.837 162.997 130.643 164.862 128.789 167.03C126.943 169.208 125.415 171.676 124.332 174.402Z" fill="white"/>
<path d="M186.477 180.488C187.395 177.694 189.078 175.145 191.159 173.011C191.678 172.474 192.251 171.99 192.807 171.487C193.396 171.027 194.005 170.586 194.608 170.137C195.251 169.748 195.899 169.364 196.555 168.995C197.24 168.684 197.92 168.354 198.615 168.06C199.334 167.83 200.051 167.59 200.774 167.377L202.996 166.939L205.254 166.792C206.006 166.786 206.757 166.869 207.503 166.916C210.49 167.254 213.328 168.297 215.864 169.76C213.078 168.825 210.27 168.13 207.423 168.007C204.584 167.878 201.744 168.336 199.117 169.369C196.477 170.366 194.045 171.911 191.91 173.802C189.779 175.705 187.925 177.937 186.477 180.488Z" fill="white"/>
<path d="M116.934 252.683C111.163 252.683 98.529 251.386 90.399 240.933C79.998 227.56 83.758 201.899 83.922 200.813L88.438 201.499C88.4 201.745 84.812 226.308 94.005 238.128C102.993 249.684 119.295 248.025 119.459 248.005L119.972 252.543C119.795 252.565 118.677 252.683 116.934 252.683Z" fill="#53C4CD"/>
<path opacity="0.4" d="M116.934 252.683C111.163 252.683 98.529 251.386 90.399 240.933C79.998 227.56 83.758 201.899 83.922 200.813L88.438 201.499C88.4 201.745 84.812 226.308 94.005 238.128C102.993 249.684 119.295 248.025 119.459 248.005L119.972 252.543C119.795 252.565 118.677 252.683 116.934 252.683Z" fill="white"/>
<path d="M89.767 204.606C88.944 204.606 88.103 204.537 87.247 204.399C79.629 203.165 76.256 198.607 74.768 195C73.277 191.385 72.932 187.012 73.744 182.003L83.404 183.569C82.901 186.672 83.047 189.406 83.815 191.267C84.363 192.595 85.425 194.19 88.811 194.738C90.358 194.988 92.03 194.856 93.781 192.215C95.132 190.177 95.944 187.404 96.228 185.646L105.889 187.211C105.665 188.593 104.718 193.429 101.937 197.623C98.9121 202.186 94.655 204.606 89.767 204.606Z" fill="#53C4CD"/>
<path d="M126.478 265.755C126.461 265.547 118.293 264.242 118.293 264.242L114.329 237.585L124.222 233.677L126.478 265.755Z" fill="#53C4CD"/>
<path opacity="0.2" d="M126.478 265.755C126.461 265.547 118.293 264.242 118.293 264.242L114.329 237.585L124.222 233.677L126.478 265.755Z" fill="black"/>
<path d="M207.232 265.805C207.254 265.597 215.448 264.473 215.448 264.473L220.001 237.91L210.197 233.784L207.232 265.805Z" fill="#53C4CD"/>
<path opacity="0.2" d="M207.232 265.805C207.254 265.597 215.448 264.473 215.448 264.473L220.001 237.91L210.197 233.784L207.232 265.805Z" fill="black"/>
<path d="M123.079 227.708C123.079 227.708 189.142 224.883 211.458 228.603C211.458 228.603 204.905 292.527 204.551 293.767C204.551 293.767 138.835 293.59 128.562 293.767C128.562 293.767 122.995 251.26 123.079 227.708Z" fill="#53C4CD"/>
<path opacity="0.2" d="M143.146 245.225C143.146 245.225 179.21 243.801 191.393 245.676C191.393 245.676 187.815 277.91 187.622 278.535C187.622 278.535 151.747 278.446 146.14 278.535C146.138 278.535 143.674 256.474 143.146 245.225Z" fill="black"/>
<path opacity="0.2" d="M148.075 278.522C147.249 278.522 146.595 278.532 146.136 278.537C146.136 278.537 143.675 256.472 143.143 245.223C143.143 245.223 143.964 245.191 145.396 245.144L148.075 278.522Z" fill="black"/>
<path d="M158.712 253.179C156.691 252.542 154.537 253.664 153.9 255.684C153.263 257.707 154.386 259.859 156.408 260.496C158.427 261.132 160.579 260.011 161.216 257.99C161.852 255.971 160.732 253.815 158.712 253.179ZM160.771 257.849C160.212 259.626 158.321 260.61 156.547 260.051C154.773 259.492 153.788 257.602 154.348 255.826C154.907 254.052 156.798 253.066 158.573 253.626C160.345 254.185 161.33 256.075 160.771 257.849ZM158.712 253.179C156.691 252.542 154.537 253.664 153.9 255.684C153.263 257.707 154.386 259.859 156.408 260.496C158.427 261.132 160.579 260.011 161.216 257.99C161.852 255.971 160.732 253.815 158.712 253.179ZM160.771 257.849C160.212 259.626 158.321 260.61 156.547 260.051C154.773 259.492 153.788 257.602 154.348 255.826C154.907 254.052 156.798 253.066 158.573 253.626C160.345 254.185 161.33 256.075 160.771 257.849ZM158.712 253.179C156.691 252.542 154.537 253.664 153.9 255.684C153.263 257.707 154.386 259.859 156.408 260.496C158.427 261.132 160.579 260.011 161.216 257.99C161.852 255.971 160.732 253.815 158.712 253.179ZM160.771 257.849C160.212 259.626 158.321 260.61 156.547 260.051C154.773 259.492 153.788 257.602 154.348 255.826C154.907 254.052 156.798 253.066 158.573 253.626C160.345 254.185 161.33 256.075 160.771 257.849ZM159.991 249.126C155.728 247.784 151.19 250.152 149.847 254.408C148.506 258.666 150.869 263.207 155.129 264.549C159.385 265.889 163.927 263.525 165.269 259.267C166.612 255.011 164.247 250.467 159.991 249.126ZM161.786 258.169C161.051 260.501 158.558 261.8 156.228 261.065C153.898 260.331 152.599 257.838 153.333 255.506C154.068 253.173 156.562 251.876 158.893 252.61C161.221 253.345 162.52 255.838 161.786 258.169ZM161.216 257.991C161.852 255.971 160.732 253.816 158.712 253.179C156.691 252.543 154.537 253.665 153.9 255.684C153.263 257.708 154.386 259.86 156.408 260.496C158.427 261.133 160.579 260.012 161.216 257.991ZM160.771 257.849C160.212 259.626 158.321 260.61 156.547 260.051C154.773 259.492 153.788 257.602 154.348 255.826C154.907 254.052 156.798 253.066 158.573 253.626C160.345 254.185 161.33 256.075 160.771 257.849ZM158.712 253.179C156.691 252.542 154.537 253.664 153.9 255.684C153.263 257.707 154.386 259.859 156.408 260.496C158.427 261.132 160.579 260.011 161.216 257.99C161.852 255.971 160.732 253.815 158.712 253.179ZM160.771 257.849C160.212 259.626 158.321 260.61 156.547 260.051C154.773 259.492 153.788 257.602 154.348 255.826C154.907 254.052 156.798 253.066 158.573 253.626C160.345 254.185 161.33 256.075 160.771 257.849ZM158.712 253.179C156.691 252.542 154.537 253.664 153.9 255.684C153.263 257.707 154.386 259.859 156.408 260.496C158.427 261.132 160.579 260.011 161.216 257.99C161.852 255.971 160.732 253.815 158.712 253.179ZM160.771 257.849C160.212 259.626 158.321 260.61 156.547 260.051C154.773 259.492 153.788 257.602 154.348 255.826C154.907 254.052 156.798 253.066 158.573 253.626C160.345 254.185 161.33 256.075 160.771 257.849Z" fill="#53C4CD"/>
<path d="M156.712 264.695L153.748 263.761L153.25 265.912L155.887 266.742L156.712 264.695Z" fill="#53C4CD"/>
<path d="M151.384 261.918L149.948 259.161L148.076 260.33L149.352 262.783L151.384 261.918Z" fill="#53C4CD"/>
<path d="M149.58 256.186L150.514 253.222L148.364 252.725L147.532 255.361L149.58 256.186Z" fill="#53C4CD"/>
<path d="M152.357 250.858L155.114 249.422L153.945 247.55L151.493 248.827L152.357 250.858Z" fill="#53C4CD"/>
<path d="M158.088 249.054L161.053 249.988L161.551 247.838L158.914 247.007L158.088 249.054Z" fill="#53C4CD"/>
<path d="M163.417 251.831L164.853 254.588L166.726 253.42L165.448 250.967L163.417 251.831Z" fill="#53C4CD"/>
<path d="M165.221 257.563L164.287 260.527L166.438 261.025L167.268 258.388L165.221 257.563Z" fill="#53C4CD"/>
<path d="M162.444 262.891L159.687 264.328L160.856 266.2L163.308 264.923L162.444 262.891Z" fill="#53C4CD"/>
<path d="M171.752 264.462C170.557 263.683 168.957 264.022 168.179 265.216C167.399 266.413 167.739 268.011 168.935 268.79C170.129 269.568 171.727 269.23 172.506 268.034C173.284 266.84 172.947 265.24 171.752 264.462ZM172.243 267.863C171.559 268.914 170.155 269.21 169.105 268.527C168.056 267.843 167.759 266.439 168.443 265.389C169.126 264.339 170.531 264.043 171.581 264.727C172.629 265.41 172.926 266.813 172.243 267.863ZM171.752 264.462C170.557 263.683 168.957 264.022 168.179 265.216C167.399 266.413 167.739 268.011 168.935 268.79C170.129 269.568 171.727 269.23 172.506 268.034C173.284 266.84 172.947 265.24 171.752 264.462ZM172.243 267.863C171.559 268.914 170.155 269.21 169.105 268.527C168.056 267.843 167.759 266.439 168.443 265.389C169.126 264.339 170.531 264.043 171.581 264.727C172.629 265.41 172.926 266.813 172.243 267.863ZM171.752 264.462C170.557 263.683 168.957 264.022 168.179 265.216C167.399 266.413 167.739 268.011 168.935 268.79C170.129 269.568 171.727 269.23 172.506 268.034C173.284 266.84 172.947 265.24 171.752 264.462ZM172.243 267.863C171.559 268.914 170.155 269.21 169.105 268.527C168.056 267.843 167.759 266.439 168.443 265.389C169.126 264.339 170.531 264.043 171.581 264.727C172.629 265.41 172.926 266.813 172.243 267.863ZM173.314 262.065C170.792 260.424 167.422 261.139 165.781 263.656C164.141 266.176 164.852 269.548 167.372 271.188C169.89 272.827 173.263 272.114 174.903 269.596C176.543 267.078 175.832 263.704 173.314 262.065ZM172.843 268.254C171.945 269.633 170.093 270.025 168.715 269.127C167.337 268.23 166.944 266.378 167.843 264.999C168.741 263.619 170.594 263.229 171.972 264.126C173.349 265.023 173.741 266.875 172.843 268.254ZM172.506 268.034C173.284 266.84 172.947 265.24 171.752 264.462C170.557 263.684 168.957 264.023 168.179 265.216C167.399 266.413 167.739 268.012 168.935 268.791C170.129 269.569 171.727 269.23 172.506 268.034ZM172.243 267.863C171.559 268.914 170.155 269.21 169.105 268.527C168.056 267.843 167.759 266.439 168.443 265.389C169.126 264.339 170.531 264.043 171.581 264.727C172.629 265.41 172.926 266.813 172.243 267.863ZM171.752 264.462C170.557 263.683 168.957 264.022 168.179 265.216C167.399 266.413 167.739 268.011 168.935 268.79C170.129 269.568 171.727 269.23 172.506 268.034C173.284 266.84 172.947 265.24 171.752 264.462ZM172.243 267.863C171.559 268.914 170.155 269.21 169.105 268.527C168.056 267.843 167.759 266.439 168.443 265.389C169.126 264.339 170.531 264.043 171.581 264.727C172.629 265.41 172.926 266.813 172.243 267.863ZM171.752 264.462C170.557 263.683 168.957 264.022 168.179 265.216C167.399 266.413 167.739 268.011 168.935 268.79C170.129 269.568 171.727 269.23 172.506 268.034C173.284 266.84 172.947 265.24 171.752 264.462ZM172.243 267.863C171.559 268.914 170.155 269.21 169.105 268.527C168.056 267.843 167.759 266.439 168.443 265.389C169.126 264.339 170.531 264.043 171.581 264.727C172.629 265.41 172.926 266.813 172.243 267.863Z" fill="#DBDBDB"/>
<path d="M168.373 271.569L166.619 270.427L165.908 271.731L167.468 272.747L168.373 271.569Z" fill="#DBDBDB"/>
<path d="M165.419 268.804L164.987 266.757L163.561 267.176L163.946 268.997L165.419 268.804Z" fill="#DBDBDB"/>
<path d="M165.286 264.761L166.428 263.007L165.123 262.296L164.107 263.856L165.286 264.761Z" fill="#DBDBDB"/>
<path d="M168.05 261.807L170.098 261.375L169.678 259.95L167.857 260.334L168.05 261.807Z" fill="#DBDBDB"/>
<path d="M172.094 261.674L173.847 262.816L174.559 261.511L172.999 260.496L172.094 261.674Z" fill="#DBDBDB"/>
<path d="M175.047 264.438L175.48 266.486L176.905 266.066L176.52 264.245L175.047 264.438Z" fill="#DBDBDB"/>
<path d="M175.181 268.482L174.039 270.236L175.343 270.947L176.359 269.387L175.181 268.482Z" fill="#DBDBDB"/>
<path d="M172.416 271.435L170.369 271.868L170.788 273.293L172.609 272.908L172.416 271.435Z" fill="#DBDBDB"/>
<path d="M209.864 286.328L212.403 286.801L219.664 237.622L216.771 237.091L209.864 286.328Z" fill="#53C4CD"/>
<path d="M187.621 278.535L191.392 245.676L216.771 237.091C216.771 237.091 209.864 286.86 209.864 286.328L187.621 278.535Z" fill="#53C4CD"/>
<path opacity="0.4" d="M187.621 278.535L191.392 245.676L216.771 237.091C216.771 237.091 209.864 286.86 209.864 286.328L187.621 278.535Z" fill="white"/>
<path d="M126.111 247.007C125.697 244.285 125.474 241.541 125.304 238.794C125.226 237.42 125.191 236.044 125.16 234.668C125.133 233.292 125.109 231.915 125.15 230.539L125.161 230.177L125.513 230.158C130.555 229.887 135.593 229.556 140.638 229.336C145.682 229.087 150.725 228.861 155.772 228.703C150.741 229.159 145.707 229.547 140.672 229.912C135.638 230.306 130.599 230.588 125.562 230.931L125.925 230.551L125.904 234.66L125.952 238.772C125.959 240.143 125.984 241.514 126.024 242.886L126.111 247.007Z" fill="white"/>
<path d="M194.932 246.158C196.504 245.411 198.101 244.717 199.717 244.076C201.328 243.42 202.953 242.799 204.598 242.229C206.245 241.667 207.898 241.116 209.578 240.649C211.256 240.177 212.949 239.74 214.679 239.457L215.104 239.388L215.029 239.794C214.63 241.921 214.214 244.046 213.722 246.158C213.906 243.997 214.166 241.847 214.445 239.701L214.794 240.038C213.117 240.438 211.454 240.905 209.796 241.395C208.14 241.891 206.488 242.413 204.841 242.949L194.932 246.158Z" fill="white"/>
<path opacity="0.1" d="M137.094 227.841L137.521 236.06L137.887 244.281L138.52 260.726L139.016 277.176L139.214 285.403L139.35 293.632L138.921 285.413L138.556 277.192L137.923 260.747L137.429 244.297L137.23 236.07L137.094 227.841Z" fill="black"/>
<path opacity="0.1" d="M134.739 232.795C134.897 233.503 134.478 234.347 133.679 234.582C133.292 234.699 132.839 234.66 132.461 234.445C132.084 234.23 131.805 233.839 131.716 233.405C131.63 232.97 131.734 232.501 131.999 232.157C132.262 231.811 132.668 231.6 133.069 231.558C133.898 231.465 134.611 232.083 134.739 232.795ZM134.739 232.795C134.664 232.438 134.434 232.118 134.122 231.945C133.809 231.773 133.44 231.752 133.128 231.853C132.488 232.061 132.18 232.735 132.302 233.288C132.403 233.842 132.947 234.349 133.62 234.291C133.945 234.263 134.278 234.1 134.499 233.819C134.721 233.539 134.808 233.154 134.739 232.795Z" fill="black"/>
<path opacity="0.1" d="M135.305 242.65C135.463 243.358 135.044 244.202 134.245 244.437C133.858 244.553 133.404 244.515 133.027 244.299C132.65 244.085 132.371 243.694 132.282 243.26C132.196 242.825 132.3 242.355 132.565 242.011C132.828 241.666 133.234 241.454 133.635 241.412C134.463 241.32 135.177 241.937 135.305 242.65ZM135.305 242.65C135.229 242.292 135 241.972 134.688 241.8C134.375 241.628 134.005 241.606 133.694 241.707C133.053 241.916 132.746 242.591 132.867 243.142C132.969 243.697 133.513 244.204 134.186 244.145C134.511 244.117 134.844 243.954 135.066 243.674C135.287 243.394 135.375 243.009 135.305 242.65Z" fill="black"/>
<path opacity="0.1" d="M135.664 253.111C135.822 253.819 135.403 254.663 134.604 254.898C134.217 255.014 133.764 254.976 133.386 254.76C133.009 254.546 132.73 254.155 132.641 253.72C132.555 253.286 132.659 252.816 132.924 252.472C133.187 252.126 133.593 251.915 133.994 251.873C134.822 251.781 135.536 252.398 135.664 253.111ZM135.664 253.111C135.589 252.753 135.359 252.433 135.047 252.261C134.734 252.089 134.364 252.067 134.053 252.168C133.412 252.377 133.105 253.051 133.226 253.602C133.328 254.158 133.872 254.664 134.545 254.605C134.87 254.578 135.203 254.415 135.424 254.134C135.646 253.854 135.733 253.47 135.664 253.111Z" fill="black"/>
<path opacity="0.1" d="M136.023 263.571C136.181 264.279 135.762 265.123 134.963 265.358C134.576 265.474 134.123 265.436 133.745 265.22C133.368 265.006 133.089 264.615 133 264.181C132.914 263.746 133.018 263.277 133.283 262.933C133.546 262.587 133.951 262.376 134.353 262.333C135.182 262.241 135.895 262.858 136.023 263.571ZM136.023 263.571C135.948 263.213 135.719 262.893 135.406 262.721C135.093 262.549 134.724 262.527 134.412 262.629C133.772 262.837 133.464 263.511 133.586 264.063C133.687 264.618 134.231 265.125 134.904 265.066C135.229 265.039 135.562 264.876 135.783 264.595C136.005 264.315 136.092 263.93 136.023 263.571Z" fill="black"/>
<path opacity="0.1" d="M136.383 274.032C136.541 274.74 136.121 275.584 135.322 275.819C134.935 275.935 134.482 275.897 134.104 275.681C133.727 275.467 133.448 275.076 133.359 274.642C133.274 274.207 133.377 273.738 133.642 273.394C133.906 273.048 134.311 272.837 134.712 272.794C135.541 272.702 136.254 273.319 136.383 274.032ZM136.383 274.032C136.307 273.674 136.077 273.354 135.765 273.182C135.452 273.01 135.083 272.988 134.771 273.09C134.131 273.298 133.823 273.972 133.945 274.524C134.046 275.08 134.59 275.586 135.263 275.527C135.589 275.5 135.921 275.337 136.143 275.056C136.364 274.775 136.451 274.39 136.383 274.032Z" fill="black"/>
<path opacity="0.1" d="M136.742 284.492C136.9 285.2 136.48 286.044 135.681 286.279C135.294 286.395 134.841 286.357 134.463 286.142C134.086 285.927 133.807 285.536 133.718 285.102C133.633 284.668 133.736 284.198 134.001 283.854C134.265 283.507 134.669 283.297 135.071 283.254C135.9 283.162 136.612 283.78 136.742 284.492ZM136.742 284.492C136.666 284.135 136.436 283.815 136.124 283.642C135.811 283.47 135.442 283.448 135.131 283.55C134.49 283.758 134.182 284.432 134.304 284.985C134.405 285.54 134.949 286.046 135.622 285.988C135.948 285.96 136.28 285.796 136.501 285.516C136.723 285.235 136.81 284.851 136.742 284.492Z" fill="black"/>
<path d="M139.971 300.488L102.565 311.823L103.889 316.194L141.295 304.859L139.971 300.488Z" fill="#53C4CD"/>
<path opacity="0.4" d="M139.971 300.488L102.565 311.823L103.889 316.194L141.295 304.859L139.971 300.488Z" fill="white"/>
<path d="M122.074 304.427L117.722 305.812L119.778 312.277L124.13 310.892L122.074 304.427Z" fill="#53C4CD"/>
<path d="M103.597 322.597L93.9441 280.798L64.8091 287.706L79.1561 328.441L103.597 322.597Z" fill="#53C4CD"/>
<path d="M110.061 320.472L103.597 322.597L93.9441 280.798L103.242 283.012L110.061 320.472Z" fill="#53C4CD"/>
<path opacity="0.2" d="M110.061 320.472L103.597 322.597L93.9441 280.798L103.242 283.012L110.061 320.472Z" fill="black"/>
<path d="M140.649 307.63C143.388 307.63 145.608 305.41 145.608 302.671C145.608 299.933 143.388 297.713 140.649 297.713C137.911 297.713 135.691 299.933 135.691 302.671C135.691 305.41 137.911 307.63 140.649 307.63Z" fill="#53C4CD"/>
<path d="M191.676 300.367L190.342 304.735L227.725 316.148L229.059 311.78L191.676 300.367Z" fill="#53C4CD"/>
<path opacity="0.4" d="M191.676 300.367L190.342 304.735L227.725 316.148L229.059 311.78L191.676 300.367Z" fill="white"/>
<path d="M209.599 304.326L207.529 310.786L211.878 312.18L213.948 305.72L209.599 304.326Z" fill="#53C4CD"/>
<path d="M228.029 322.561L237.771 280.782L266.891 287.752L252.458 328.457L228.029 322.561Z" fill="#53C4CD"/>
<path d="M221.569 320.421L228.029 322.561L237.771 280.782L228.468 282.977L221.569 320.421Z" fill="#53C4CD"/>
<path opacity="0.2" d="M221.569 320.421L228.029 322.561L237.771 280.782L228.468 282.977L221.569 320.421Z" fill="black"/>
<path d="M186.06 302.546C186.054 305.285 188.269 307.51 191.008 307.516C193.747 307.522 195.972 305.306 195.978 302.568C195.984 299.829 193.768 297.604 191.03 297.598C188.29 297.591 186.065 299.807 186.06 302.546Z" fill="#53C4CD"/>
<path d="M223.485 250.991C223.602 250.881 235.617 239.737 249.751 243.549C264.205 247.449 276.138 269.218 276.256 269.439L280.273 267.267C279.751 266.301 267.305 243.548 250.939 239.141C234.296 234.652 220.901 247.148 220.339 247.683L223.485 250.991Z" fill="#53C4CD"/>
<path opacity="0.4" d="M223.485 250.991C223.602 250.881 235.617 239.737 249.751 243.549C264.205 247.449 276.138 269.218 276.256 269.439L280.273 267.267C279.751 266.301 267.305 243.548 250.939 239.141C234.296 234.652 220.901 247.148 220.339 247.683L223.485 250.991Z" fill="white"/>
<path d="M270.93 291.354L279.585 286.785C278.755 285.212 277.732 282.508 277.583 280.067C277.391 276.904 278.646 275.792 280.031 275.06C283.063 273.458 284.873 274.093 286.109 274.821C287.843 275.845 289.607 277.94 291.074 280.72L299.729 276.151C297.361 271.664 294.452 268.381 291.084 266.393C287.723 264.412 282.286 262.803 275.461 266.405C270.142 269.213 267.426 274.276 267.815 280.661C268.12 285.685 270.277 290.116 270.93 291.354Z" fill="#53C4CD"/>
<path d="M225.309 235.742C227.185 234.446 229.105 233.225 231.033 232.015C232.955 230.798 234.909 229.634 236.864 228.471C238.827 227.324 240.792 226.179 242.789 225.087L245.784 223.451C246.798 222.93 247.797 222.387 248.823 221.887C247.89 222.543 246.929 223.153 245.983 223.788L243.101 225.615C241.178 226.832 239.224 227.995 237.269 229.157C235.304 230.303 233.34 231.448 231.343 232.54C229.351 233.641 227.352 234.729 225.309 235.742Z" fill="#263238"/>
<path d="M220.339 254.416C223.025 255.946 225.571 257.674 228.083 259.449C230.581 261.245 233.044 263.089 235.364 265.132C232.676 263.603 230.131 261.875 227.62 260.098C225.123 258.302 222.661 256.458 220.339 254.416Z" fill="#263238"/>
<path d="M224.751 252.119C226.824 252.749 228.865 253.46 230.901 254.184C232.941 254.899 234.958 255.673 236.974 256.447C238.985 257.239 240.994 258.032 242.981 258.883L245.961 260.161C246.943 260.614 247.936 261.042 248.909 261.519C247.87 261.211 246.849 260.855 245.819 260.526L242.758 259.455C240.719 258.739 238.701 257.966 236.686 257.191C234.676 256.399 232.666 255.605 230.68 254.754C228.69 253.91 226.705 253.056 224.751 252.119Z" fill="#263238"/>
<path d="M230.641 237.493C232.628 236.977 234.629 236.547 236.634 236.129C238.636 235.703 240.65 235.339 242.663 234.975C244.68 234.629 246.697 234.285 248.725 234.002L251.767 233.58C252.786 233.468 253.8 233.329 254.824 233.241C253.832 233.508 252.832 233.723 251.835 233.965L248.831 234.606C246.828 235.031 244.815 235.396 242.801 235.759C240.784 236.103 238.768 236.448 236.74 236.73C234.714 237.023 232.684 237.302 230.641 237.493Z" fill="#263238"/>
<path d="M182.754 249.918C183.091 248.304 183.633 246.73 184.334 245.23C185.035 243.731 185.894 242.294 186.971 241.016C188.052 239.752 189.381 238.637 190.981 238.021C192.581 237.425 194.412 237.429 196.017 238.07C197.641 238.703 198.922 240.067 199.612 241.636C199.97 242.42 200.195 243.26 200.287 244.12C200.368 244.978 200.334 245.87 199.992 246.727C199.818 247.148 199.546 247.573 199.11 247.857C198.9 248.004 198.642 248.087 198.389 248.126C198.14 248.162 197.884 248.151 197.594 248.051C197.06 247.823 196.793 247.394 196.563 247.007C196.358 246.605 196.2 246.193 196.092 245.777C195.644 244.112 195.598 242.418 195.677 240.743C195.915 237.406 196.791 234.069 198.589 231.198C199.496 229.779 200.634 228.473 202.049 227.518C203.446 226.557 205.081 225.896 206.75 225.704C207.571 225.506 208.42 225.524 209.258 225.483C209.679 225.439 210.096 225.541 210.515 225.562C210.931 225.617 211.357 225.61 211.762 225.731C213.42 226.028 214.978 226.694 216.434 227.499C217.881 228.333 219.17 229.404 220.346 230.566C221.512 231.74 222.572 233.024 223.424 234.438C221.537 231.744 219.107 229.406 216.242 227.841C214.8 227.091 213.277 226.476 211.672 226.227C211.28 226.118 210.87 226.137 210.469 226.092C210.066 226.08 209.665 225.988 209.261 226.043C208.456 226.102 207.645 226.098 206.859 226.309C205.25 226.536 203.758 227.183 202.444 228.085C201.124 228.988 200.06 230.227 199.204 231.584C197.51 234.328 196.68 237.57 196.474 240.79C196.383 242.4 196.424 244.046 196.826 245.574C197.019 246.305 197.364 247.129 197.868 247.36C197.932 247.366 197.975 247.4 198.054 247.403C198.132 247.396 198.216 247.414 198.29 247.395C198.441 247.37 198.589 247.329 198.716 247.238C198.978 247.074 199.185 246.782 199.325 246.447C199.605 245.768 199.656 244.964 199.586 244.189C199.508 243.41 199.308 242.635 198.986 241.917C198.354 240.482 197.235 239.242 195.784 238.633C194.341 238.021 192.652 237.971 191.154 238.492C189.649 239.032 188.349 240.07 187.265 241.272C185.091 243.706 183.625 246.751 182.754 249.918Z" fill="#263238"/>
<path d="M109.015 270.599C109.785 269.147 110.918 267.891 112.24 266.899C113.561 265.906 115.077 265.136 116.709 264.758C118.332 264.37 120.075 264.363 121.699 264.857C123.324 265.343 124.788 266.295 125.959 267.509C127.139 268.722 128.02 270.195 128.626 271.762C129.221 273.331 129.577 275.013 129.451 276.732C129.366 277.578 129.194 278.492 128.525 279.224C128.193 279.584 127.68 279.821 127.18 279.829C126.7 279.825 126.246 279.754 125.805 279.518C125.367 279.292 125.016 278.9 124.816 278.466C124.612 278.031 124.536 277.57 124.516 277.125C124.484 276.231 124.677 275.382 124.939 274.575C125.475 272.957 126.354 271.5 127.382 270.179C128.415 268.86 129.632 267.685 130.995 266.707C133.698 264.744 137.142 263.653 140.502 264.093C142.16 264.317 143.806 264.796 145.257 265.642C146.721 266.46 147.991 267.595 149.026 268.893C150.06 270.196 150.866 271.66 151.487 273.186C152.108 274.713 152.566 276.306 152.791 277.933C152.121 274.735 150.806 271.629 148.711 269.151C147.674 267.912 146.423 266.849 145.004 266.1C143.597 265.323 142.019 264.907 140.43 264.729C137.238 264.382 134 265.399 131.425 267.305C128.853 269.197 126.748 271.837 125.685 274.824C125.434 275.569 125.259 276.348 125.282 277.098C125.3 277.842 125.562 278.557 126.159 278.859C126.441 279.021 126.823 279.084 127.157 279.09C127.48 279.081 127.767 278.952 127.998 278.714C128.464 278.228 128.664 277.433 128.735 276.67C128.86 275.111 128.537 273.498 127.98 272.008C127.415 270.514 126.575 269.121 125.49 267.955C124.407 266.791 123.042 265.883 121.533 265.389C120.025 264.887 118.373 264.845 116.802 265.178C113.66 265.846 110.749 267.811 109.015 270.599Z" fill="#263238"/>
<path d="M72.0971 77.886C72.0061 74.602 71.3101 71.2961 69.7821 68.4151C69.0161 66.9881 68.0011 65.67 66.6691 64.787C65.3381 63.923 63.6861 63.5681 62.1391 63.8191C60.5851 64.0631 59.2021 65.0011 58.2461 66.2431C57.7621 66.8641 57.3831 67.5671 57.1211 68.3061C56.8671 69.0421 56.7251 69.8351 56.8361 70.5601C56.8911 70.9191 57.0221 71.2511 57.2381 71.4741C57.3401 71.5931 57.4731 71.6671 57.6141 71.7281C57.6821 71.7641 57.7681 71.767 57.8421 71.792C57.9181 71.808 57.9681 71.7841 58.0331 71.7941C58.5761 71.6901 59.1091 70.973 59.4701 70.309C60.2251 68.92 60.6581 67.332 60.9541 65.748C61.5211 62.571 61.4901 59.2251 60.4991 56.1561C59.9931 54.6341 59.2541 53.1761 58.1881 51.9841C57.1281 50.7951 55.8331 49.8111 54.3251 49.2071C53.6121 48.8141 52.8241 48.6251 52.0561 48.3741C51.6771 48.2261 51.2661 48.2201 50.8711 48.1341C50.4721 48.0821 50.0771 47.9661 49.6701 47.9781C48.0531 47.8361 46.4261 48.0701 44.8471 48.4541C41.6911 49.2911 38.7741 50.9811 36.2981 53.1461C37.4631 51.9771 38.7991 50.9831 40.2121 50.1211C41.6311 49.2741 43.1381 48.5421 44.7421 48.0771C46.3471 47.6421 48.0201 47.3671 49.7011 47.4741C50.1231 47.4531 50.5341 47.5631 50.9511 47.6081C51.3631 47.6861 51.7931 47.6871 52.1901 47.8311C52.9951 48.0711 53.8241 48.2551 54.5731 48.6441C56.1491 49.2281 57.5791 50.2611 58.7051 51.5271C59.8511 52.7911 60.6441 54.3311 61.1871 55.9261C62.2481 59.1431 62.3021 62.5931 61.7361 65.8901C61.4141 67.5351 60.9641 69.169 60.1321 70.68C59.9281 71.058 59.6761 71.4211 59.3811 71.7621C59.0661 72.0831 58.7041 72.4361 58.1321 72.5301C57.8251 72.5581 57.5751 72.5071 57.3421 72.4131C57.1051 72.3141 56.8751 72.1721 56.7061 71.9791C56.3501 71.6001 56.1871 71.1221 56.1191 70.6721C55.9911 69.7591 56.1711 68.8851 56.4541 68.0701C56.7491 67.2571 57.1681 66.4951 57.7021 65.8191C58.7471 64.4611 60.3161 63.4411 62.0441 63.2151C63.7561 62.9751 65.5351 63.408 66.9471 64.369C68.3531 65.35 69.3791 66.751 70.1261 68.236C70.8681 69.734 71.3581 71.3341 71.6821 72.9571C72.0041 74.5801 72.1551 76.237 72.0971 77.886Z" fill="#263238"/>
<path d="M248.309 119.512C245.094 118.834 241.716 118.74 238.559 119.554C236.993 119.965 235.474 120.644 234.304 121.734C233.154 122.825 232.423 124.35 232.305 125.913C232.18 127.48 232.769 129.044 233.755 130.264C234.245 130.88 234.841 131.412 235.497 131.839C236.153 132.257 236.892 132.581 237.623 132.643C237.985 132.673 238.339 132.622 238.606 132.465C238.744 132.394 238.848 132.282 238.94 132.159C238.991 132.101 239.014 132.019 239.056 131.953C239.089 131.883 239.078 131.828 239.103 131.769C239.129 131.216 238.555 130.53 237.994 130.025C236.821 128.967 235.376 128.175 233.905 127.518C230.949 126.225 227.687 125.475 224.471 125.721C222.874 125.859 221.283 126.237 219.876 126.995C218.472 127.748 217.213 128.778 216.274 130.103C215.725 130.705 215.357 131.427 214.935 132.115C214.702 132.449 214.6 132.847 214.425 133.211C214.281 133.588 214.076 133.944 213.994 134.342C213.479 135.882 213.327 137.518 213.331 139.143C213.409 142.407 214.372 145.639 215.899 148.551C215.034 147.146 214.379 145.615 213.871 144.04C213.378 142.462 213.018 140.826 212.94 139.157C212.892 137.495 213.015 135.804 213.512 134.194C213.59 133.779 213.792 133.404 213.934 133.009C214.106 132.627 214.208 132.209 214.44 131.856C214.861 131.13 215.234 130.367 215.787 129.729C216.723 128.333 218.06 127.184 219.554 126.384C221.051 125.564 222.733 125.152 224.411 124.997C227.786 124.717 231.155 125.468 234.228 126.787C235.753 127.485 237.237 128.303 238.511 129.466C238.831 129.752 239.125 130.082 239.388 130.449C239.627 130.829 239.886 131.264 239.843 131.843C239.799 132.147 239.692 132.379 239.546 132.584C239.395 132.791 239.202 132.981 238.975 133.101C238.524 133.358 238.021 133.405 237.567 133.366C236.649 133.277 235.841 132.899 235.114 132.433C234.393 131.957 233.749 131.372 233.217 130.694C232.139 129.362 231.515 127.597 231.697 125.865C231.863 124.145 232.7 122.515 233.963 121.367C235.244 120.228 236.845 119.558 238.464 119.178C240.094 118.807 241.765 118.703 243.418 118.767C245.073 118.831 246.719 119.071 248.309 119.512Z" fill="#263238"/>
<path d="M198.904 67.881C198.358 65.991 198.285 63.969 198.592 62.016C198.898 60.063 199.559 58.143 200.64 56.46C201.704 54.777 203.19 53.32 204.986 52.392C206.777 51.457 208.819 51.051 210.828 51.112C212.843 51.167 214.824 51.688 216.647 52.52C218.462 53.363 220.169 54.503 221.489 56.07C222.119 56.859 222.727 57.78 222.764 58.935C222.78 59.506 222.548 60.115 222.139 60.529C221.733 60.917 221.291 61.232 220.733 61.394C220.184 61.562 219.573 61.521 219.051 61.321C218.525 61.123 218.082 60.798 217.698 60.439C216.933 59.71 216.391 58.827 215.943 57.921C215.054 56.097 214.587 54.12 214.362 52.135C214.142 50.147 214.199 48.129 214.544 46.157C215.211 42.225 217.238 38.427 220.466 35.995C222.066 34.8 223.867 33.833 225.811 33.341C227.742 32.813 229.774 32.72 231.744 32.96C233.717 33.204 235.632 33.777 237.443 34.558C239.254 35.34 240.982 36.315 242.542 37.512C239.301 35.319 235.575 33.749 231.699 33.366C229.77 33.169 227.802 33.301 225.951 33.846C224.088 34.357 222.377 35.321 220.86 36.501C219.359 37.702 218.083 39.179 217.15 40.859C216.209 42.535 215.594 44.387 215.27 46.284C214.648 50.073 215.049 54.109 216.649 57.578C217.062 58.431 217.567 59.25 218.226 59.883C218.873 60.514 219.726 60.927 220.525 60.674C220.917 60.572 221.303 60.301 221.605 60.016C221.888 59.726 222.034 59.351 222.03 58.938C222.019 58.1 221.514 57.246 220.932 56.527C219.723 55.074 218.089 53.961 216.356 53.149C214.613 52.34 212.718 51.846 210.804 51.759C208.892 51.672 206.953 52.04 205.238 52.889C203.519 53.731 202.065 55.088 200.999 56.695C198.87 59.914 198.035 64.045 198.904 67.881Z" fill="#263238"/>
<path d="M106.348 270.774C104.559 270.21 102.654 271.203 102.091 272.99C101.527 274.78 102.52 276.683 104.309 277.247C106.095 277.811 107.999 276.819 108.562 275.03C109.125 273.244 108.134 271.336 106.348 270.774ZM108.169 274.905C107.674 276.476 106.001 277.348 104.432 276.853C102.863 276.358 101.991 274.686 102.487 273.115C102.982 271.545 104.653 270.674 106.225 271.17C107.792 271.664 108.663 273.335 108.169 274.905ZM106.348 270.774C104.559 270.21 102.654 271.203 102.091 272.99C101.527 274.78 102.52 276.683 104.309 277.247C106.095 277.811 107.999 276.819 108.562 275.03C109.125 273.244 108.134 271.336 106.348 270.774ZM108.169 274.905C107.674 276.476 106.001 277.348 104.432 276.853C102.863 276.358 101.991 274.686 102.487 273.115C102.982 271.545 104.653 270.674 106.225 271.17C107.792 271.664 108.663 273.335 108.169 274.905ZM106.348 270.774C104.559 270.21 102.654 271.203 102.091 272.99C101.527 274.78 102.52 276.683 104.309 277.247C106.095 277.811 107.999 276.819 108.562 275.03C109.125 273.244 108.134 271.336 106.348 270.774ZM108.169 274.905C107.674 276.476 106.001 277.348 104.432 276.853C102.863 276.358 101.991 274.686 102.487 273.115C102.982 271.545 104.653 270.674 106.225 271.17C107.792 271.664 108.663 273.335 108.169 274.905ZM107.478 267.188C103.708 266.001 99.6929 268.096 98.5059 271.861C97.3189 275.627 99.4099 279.645 103.178 280.832C106.943 282.018 110.961 279.926 112.147 276.159C113.336 272.395 111.244 268.374 107.478 267.188ZM109.066 275.187C108.416 277.251 106.211 278.4 104.15 277.751C102.089 277.101 100.939 274.895 101.589 272.833C102.239 270.77 104.446 269.622 106.507 270.272C108.567 270.921 109.716 273.126 109.066 275.187ZM108.562 275.029C109.125 273.243 108.134 271.337 106.348 270.774C104.559 270.21 102.654 271.203 102.091 272.99C101.527 274.78 102.52 276.682 104.309 277.246C106.095 277.81 107.999 276.818 108.562 275.029ZM108.169 274.905C107.674 276.476 106.001 277.348 104.432 276.853C102.863 276.358 101.991 274.686 102.487 273.115C102.982 271.545 104.653 270.674 106.225 271.17C107.792 271.664 108.663 273.335 108.169 274.905ZM106.348 270.774C104.559 270.21 102.654 271.203 102.091 272.99C101.527 274.78 102.52 276.683 104.309 277.247C106.095 277.811 107.999 276.819 108.562 275.03C109.125 273.244 108.134 271.336 106.348 270.774ZM108.169 274.905C107.674 276.476 106.001 277.348 104.432 276.853C102.863 276.358 101.991 274.686 102.487 273.115C102.982 271.545 104.653 270.674 106.225 271.17C107.792 271.664 108.663 273.335 108.169 274.905ZM106.348 270.774C104.559 270.21 102.654 271.203 102.091 272.99C101.527 274.78 102.52 276.683 104.309 277.247C106.095 277.811 107.999 276.819 108.562 275.03C109.125 273.244 108.134 271.336 106.348 270.774ZM108.169 274.905C107.674 276.476 106.001 277.348 104.432 276.853C102.863 276.358 101.991 274.686 102.487 273.115C102.982 271.545 104.653 270.674 106.225 271.17C107.792 271.664 108.663 273.335 108.169 274.905Z" fill="#455A64"/>
<path d="M104.578 280.961L101.955 280.135L101.516 282.038L103.848 282.772L104.578 280.961Z" fill="#455A64"/>
<path d="M99.865 278.505L98.594 276.065L96.938 277.099L98.067 279.269L99.865 278.505Z" fill="#455A64"/>
<path d="M98.269 273.434L99.095 270.811L97.193 270.372L96.458 272.704L98.269 273.434Z" fill="#455A64"/>
<path d="M100.726 268.72L103.164 267.45L102.13 265.793L99.9609 266.923L100.726 268.72Z" fill="#455A64"/>
<path d="M105.795 267.124L108.418 267.95L108.859 266.049L106.525 265.314L105.795 267.124Z" fill="#455A64"/>
<path d="M110.509 269.581L111.779 272.02L113.436 270.986L112.306 268.817L110.509 269.581Z" fill="#455A64"/>
<path d="M112.106 274.651L111.279 277.274L113.182 277.715L113.917 275.381L112.106 274.651Z" fill="#455A64"/>
<path d="M109.649 279.365L107.209 280.635L108.244 282.292L110.413 281.162L109.649 279.365Z" fill="#455A64"/>
<path d="M238.656 247.972C242.253 243.125 241.24 236.278 236.393 232.681C231.544 229.083 224.696 230.096 221.1 234.943C217.502 239.791 218.515 246.639 223.364 250.237C228.21 253.835 235.058 252.822 238.656 247.972ZM233.977 244.5C232.296 246.766 229.1 247.239 226.836 245.559C224.57 243.878 224.097 240.682 225.779 238.416C227.458 236.152 230.655 235.678 232.921 237.36C235.184 239.04 235.657 242.236 233.977 244.5Z" fill="#263238"/>
<path d="M225.321 251.125L221.945 248.62L220.359 251.148L223.361 253.376L225.321 251.125Z" fill="#263238"/>
<path d="M219.74 245.219L219.124 241.061L216.215 241.727L216.762 245.425L219.74 245.219Z" fill="#263238"/>
<path d="M219.969 237.097L222.475 233.722L219.947 232.135L217.719 235.137L219.969 237.097Z" fill="#263238"/>
<path d="M225.875 231.517L230.034 230.901L229.368 227.991L225.669 228.539L225.875 231.517Z" fill="#263238"/>
<path d="M233.997 231.746L237.373 234.252L238.959 231.724L235.957 229.496L233.997 231.746Z" fill="#263238"/>
<path d="M239.578 237.652L240.193 241.81L243.102 241.145L242.555 237.446L239.578 237.652Z" fill="#263238"/>
<path d="M239.349 245.774L236.843 249.15L239.371 250.736L241.599 247.734L239.349 245.774Z" fill="#263238"/>
<path d="M233.443 251.354L229.284 251.97L229.95 254.879L233.648 254.333L233.443 251.354Z" fill="#263238"/>
<path d="M225.962 241.983L228.284 244.911L231.982 244.362L233.355 240.889L231.035 237.962L227.337 238.507L225.962 241.983ZM230.364 240.484C230.891 240.875 231 241.615 230.609 242.141C230.219 242.666 229.478 242.778 228.951 242.386C228.427 241.997 228.317 241.253 228.706 240.729C229.097 240.203 229.84 240.095 230.364 240.484Z" fill="#263238"/>
<path d="M246.851 35.108C245.286 34.614 243.619 35.483 243.125 37.047C242.632 38.613 243.501 40.279 245.066 40.772C246.629 41.265 248.295 40.397 248.788 38.832C249.281 37.269 248.414 35.6 246.851 35.108ZM248.444 38.723C248.011 40.097 246.548 40.86 245.174 40.427C243.801 39.995 243.038 38.531 243.471 37.156C243.904 35.783 245.367 35.021 246.742 35.453C248.115 35.886 248.877 37.349 248.444 38.723ZM246.851 35.108C245.286 34.614 243.619 35.483 243.125 37.047C242.632 38.613 243.501 40.279 245.066 40.772C246.629 41.265 248.295 40.397 248.788 38.832C249.281 37.269 248.414 35.6 246.851 35.108ZM248.444 38.723C248.011 40.097 246.548 40.86 245.174 40.427C243.801 39.995 243.038 38.531 243.471 37.156C243.904 35.783 245.367 35.021 246.742 35.453C248.115 35.886 248.877 37.349 248.444 38.723ZM246.851 35.108C245.286 34.614 243.619 35.483 243.125 37.047C242.632 38.613 243.501 40.279 245.066 40.772C246.629 41.265 248.295 40.397 248.788 38.832C249.281 37.269 248.414 35.6 246.851 35.108ZM248.444 38.723C248.011 40.097 246.548 40.86 245.174 40.427C243.801 39.995 243.038 38.531 243.471 37.156C243.904 35.783 245.367 35.021 246.742 35.453C248.115 35.886 248.877 37.349 248.444 38.723ZM247.841 31.971C244.542 30.932 241.028 32.765 239.989 36.059C238.951 39.355 240.78 42.871 244.078 43.909C247.373 44.947 250.888 43.116 251.927 39.82C252.966 36.526 251.135 33.008 247.841 31.971ZM249.23 38.97C248.661 40.775 246.732 41.781 244.927 41.212C243.123 40.643 242.118 38.714 242.687 36.909C243.256 35.104 245.187 34.099 246.99 34.668C248.793 35.236 249.798 37.166 249.23 38.97ZM248.789 38.832C249.282 37.269 248.415 35.6 246.851 35.108C245.286 34.614 243.619 35.483 243.126 37.047C242.633 38.613 243.501 40.279 245.066 40.772C246.629 41.264 248.296 40.397 248.789 38.832ZM248.444 38.723C248.011 40.097 246.548 40.86 245.174 40.427C243.801 39.995 243.038 38.531 243.471 37.156C243.904 35.783 245.367 35.021 246.742 35.453C248.115 35.886 248.877 37.349 248.444 38.723ZM246.851 35.108C245.286 34.614 243.619 35.483 243.125 37.047C242.632 38.613 243.501 40.279 245.066 40.772C246.629 41.265 248.295 40.397 248.788 38.832C249.281 37.269 248.414 35.6 246.851 35.108ZM248.444 38.723C248.011 40.097 246.548 40.86 245.174 40.427C243.801 39.995 243.038 38.531 243.471 37.156C243.904 35.783 245.367 35.021 246.742 35.453C248.115 35.886 248.877 37.349 248.444 38.723ZM246.851 35.108C245.286 34.614 243.619 35.483 243.125 37.047C242.632 38.613 243.501 40.279 245.066 40.772C246.629 41.265 248.295 40.397 248.788 38.832C249.281 37.269 248.414 35.6 246.851 35.108ZM248.444 38.723C248.011 40.097 246.548 40.86 245.174 40.427C243.801 39.995 243.038 38.531 243.471 37.156C243.904 35.783 245.367 35.021 246.742 35.453C248.115 35.886 248.877 37.349 248.444 38.723Z" fill="#263238"/>
<path d="M245.302 44.0221L243.007 43.2991L242.623 44.9641L244.664 45.6071L245.302 44.0221Z" fill="#263238"/>
<path d="M241.178 41.872L240.066 39.738L238.617 40.643L239.606 42.541L241.178 41.872Z" fill="#263238"/>
<path d="M239.781 37.435L240.505 35.14L238.84 34.756L238.197 36.797L239.781 37.435Z" fill="#263238"/>
<path d="M241.931 33.31L244.066 32.199L243.161 30.75L241.262 31.738L241.931 33.31Z" fill="#263238"/>
<path d="M246.368 31.914L248.663 32.637L249.048 30.972L247.007 30.329L246.368 31.914Z" fill="#263238"/>
<path d="M250.493 34.064L251.604 36.198L253.053 35.294L252.065 33.395L250.493 34.064Z" fill="#263238"/>
<path d="M251.889 38.501L251.166 40.796L252.831 41.181L253.474 39.14L251.889 38.501Z" fill="#263238"/>
<path d="M249.739 42.626L247.605 43.737L248.51 45.186L250.408 44.198L249.739 42.626Z" fill="#263238"/>
<path d="M216.355 149.114C214.79 148.621 213.123 149.49 212.63 151.053C212.137 152.619 213.006 154.285 214.571 154.778C216.134 155.271 217.799 154.403 218.293 152.838C218.785 151.275 217.918 149.606 216.355 149.114ZM217.948 152.729C217.514 154.104 216.052 154.866 214.678 154.433C213.305 154.001 212.543 152.537 212.975 151.162C213.408 149.789 214.872 149.027 216.246 149.459C217.618 149.892 218.381 151.355 217.948 152.729ZM216.355 149.114C214.79 148.621 213.123 149.49 212.63 151.053C212.137 152.619 213.006 154.285 214.571 154.778C216.134 155.271 217.799 154.403 218.293 152.838C218.785 151.275 217.918 149.606 216.355 149.114ZM217.948 152.729C217.514 154.104 216.052 154.866 214.678 154.433C213.305 154.001 212.543 152.537 212.975 151.162C213.408 149.789 214.872 149.027 216.246 149.459C217.618 149.892 218.381 151.355 217.948 152.729ZM216.355 149.114C214.79 148.621 213.123 149.49 212.63 151.053C212.137 152.619 213.006 154.285 214.571 154.778C216.134 155.271 217.799 154.403 218.293 152.838C218.785 151.275 217.918 149.606 216.355 149.114ZM217.948 152.729C217.514 154.104 216.052 154.866 214.678 154.433C213.305 154.001 212.543 152.537 212.975 151.162C213.408 149.789 214.872 149.027 216.246 149.459C217.618 149.892 218.381 151.355 217.948 152.729ZM217.345 145.977C214.046 144.938 210.532 146.771 209.493 150.065C208.455 153.362 210.284 156.877 213.582 157.915C216.877 158.953 220.392 157.123 221.43 153.826C222.469 150.532 220.639 147.014 217.345 145.977ZM218.734 152.976C218.165 154.781 216.235 155.788 214.431 155.219C212.628 154.65 211.621 152.72 212.19 150.915C212.759 149.11 214.69 148.105 216.494 148.674C218.297 149.242 219.302 151.172 218.734 152.976ZM218.293 152.838C218.785 151.275 217.918 149.606 216.355 149.114C214.79 148.621 213.123 149.49 212.63 151.053C212.137 152.619 213.006 154.285 214.571 154.778C216.134 155.271 217.799 154.403 218.293 152.838ZM217.948 152.729C217.514 154.104 216.052 154.866 214.678 154.433C213.305 154.001 212.543 152.537 212.975 151.162C213.408 149.789 214.872 149.027 216.246 149.459C217.618 149.892 218.381 151.355 217.948 152.729ZM216.355 149.114C214.79 148.621 213.123 149.49 212.63 151.053C212.137 152.619 213.006 154.285 214.571 154.778C216.134 155.271 217.799 154.403 218.293 152.838C218.785 151.275 217.918 149.606 216.355 149.114ZM217.948 152.729C217.514 154.104 216.052 154.866 214.678 154.433C213.305 154.001 212.543 152.537 212.975 151.162C213.408 149.789 214.872 149.027 216.246 149.459C217.618 149.892 218.381 151.355 217.948 152.729ZM216.355 149.114C214.79 148.621 213.123 149.49 212.63 151.053C212.137 152.619 213.006 154.285 214.571 154.778C216.134 155.271 217.799 154.403 218.293 152.838C218.785 151.275 217.918 149.606 216.355 149.114ZM217.948 152.729C217.514 154.104 216.052 154.866 214.678 154.433C213.305 154.001 212.543 152.537 212.975 151.162C213.408 149.789 214.872 149.027 216.246 149.459C217.618 149.892 218.381 151.355 217.948 152.729Z" fill="#263238"/>
<path d="M214.806 158.028L212.511 157.305L212.126 158.97L214.168 159.613L214.806 158.028Z" fill="#263238"/>
<path d="M210.681 155.878L209.57 153.745L208.12 154.649L209.109 156.547L210.681 155.878Z" fill="#263238"/>
<path d="M209.285 151.442L210.008 149.147L208.344 148.762L207.701 150.803L209.285 151.442Z" fill="#263238"/>
<path d="M211.435 147.317L213.569 146.206L212.664 144.756L210.766 145.745L211.435 147.317Z" fill="#263238"/>
<path d="M215.871 145.92L218.166 146.644L218.552 144.979L216.511 144.336L215.871 145.92Z" fill="#263238"/>
<path d="M219.996 148.07L221.108 150.205L222.557 149.3L221.568 147.401L219.996 148.07Z" fill="#263238"/>
<path d="M221.393 152.507L220.67 154.802L222.334 155.187L222.978 153.146L221.393 152.507Z" fill="#263238"/>
<path d="M219.243 156.632L217.109 157.743L218.013 159.193L219.912 158.204L219.243 156.632Z" fill="#263238"/>
<path d="M41.827 59.36C43.057 54.311 39.96 49.219 34.911 47.988C29.859 46.758 24.766 49.855 23.536 54.904C22.305 59.956 25.402 65.049 30.454 66.279C35.504 67.509 40.596 64.412 41.827 59.36ZM36.953 58.173C36.377 60.533 34.001 61.979 31.642 61.404C29.281 60.829 27.835 58.452 28.411 56.092C28.985 53.733 31.363 52.288 33.723 52.863C36.081 53.438 37.527 55.814 36.953 58.173Z" fill="#263238"/>
<path d="M32.304 66.327L28.787 65.47L28.376 68.007L31.503 68.769L32.304 66.327Z" fill="#263238"/>
<path d="M25.9001 63.5119L24.0191 60.4189L21.9331 61.9209L23.6061 64.6719L25.9001 63.5119Z" fill="#263238"/>
<path d="M23.3609 56.991L24.2179 53.475L21.6809 53.063L20.9189 56.191L23.3609 56.991Z" fill="#263238"/>
<path d="M26.1771 50.586L29.2691 48.706L27.7681 46.62L25.0171 48.294L26.1771 50.586Z" fill="#263238"/>
<path d="M32.697 48.049L36.214 48.9059L36.626 46.3689L33.498 45.6069L32.697 48.049Z" fill="#263238"/>
<path d="M39.1021 50.864L40.983 53.957L43.068 52.455L41.3951 49.704L39.1021 50.864Z" fill="#263238"/>
<path d="M41.64 57.385L40.783 60.901L43.32 61.313L44.082 58.185L41.64 57.385Z" fill="#263238"/>
<path d="M38.8239 63.789L35.7319 65.67L37.2339 67.755L39.9849 66.082L38.8239 63.789Z" fill="#263238"/>
<path d="M29.751 58.8599L32.574 60.4059L35.323 58.7319L35.249 55.5159L32.428 53.9709L29.677 55.6429L29.751 58.8599ZM32.742 56.1969C33.291 56.3299 33.625 56.8809 33.491 57.4299C33.358 57.9769 32.807 58.3129 32.258 58.1789C31.711 58.0459 31.375 57.493 31.509 56.946C31.643 56.398 32.195 56.0639 32.742 56.1969Z" fill="#263238"/>
<path d="M254.549 156.673C252.402 153.404 251.196 149.728 251.196 145.841C251.196 132.119 266.264 120.993 284.841 120.993C303.418 120.993 318.473 132.12 318.473 145.841C318.473 159.563 303.418 170.689 284.841 170.689C275.833 170.689 267.667 168.08 261.634 163.815L250.045 166.762L254.549 156.673Z" fill="white"/>
<path d="M254.549 156.673C252.523 153.655 251.254 150.092 251.121 146.432C251.02 142.779 251.92 139.084 253.796 135.923C255.63 132.739 258.244 130.054 261.196 127.895C264.152 125.724 267.48 124.084 270.954 122.931C274.429 121.77 278.049 121.074 281.701 120.782C285.358 120.514 289.04 120.741 292.654 121.339C293.552 121.523 294.463 121.646 295.35 121.881L298.007 122.596L300.603 123.513C301.466 123.824 302.287 124.245 303.131 124.606C306.444 126.182 309.551 128.247 312.164 130.854C314.77 133.451 316.872 136.624 317.98 140.174C319.086 143.711 319.167 147.594 318.09 151.152C317.043 154.721 314.99 157.927 312.419 160.558C309.842 163.199 306.76 165.301 303.464 166.913C300.168 168.544 296.617 169.607 293.016 170.261C289.408 170.88 285.727 171.145 282.073 170.887C278.421 170.657 274.792 169.99 271.316 168.842C267.844 167.698 264.503 166.102 261.53 163.964L261.68 163.992L250.067 166.847L249.892 166.89L249.966 166.727L254.549 156.673ZM254.549 156.673L250.125 166.796L250.023 166.675L261.59 163.637L261.669 163.617L261.74 163.665C267.707 167.785 274.904 169.929 282.108 170.314C285.718 170.537 289.349 170.242 292.895 169.601C296.438 168.943 299.929 167.89 303.156 166.28C306.385 164.689 309.392 162.622 311.891 160.045C314.384 157.477 316.356 154.37 317.352 150.938C318.379 147.516 318.281 143.801 317.221 140.408C316.166 136.998 314.151 133.925 311.623 131.392C309.091 128.85 306.062 126.82 302.818 125.266C301.992 124.91 301.189 124.494 300.342 124.187L297.796 123.279L295.185 122.568C294.315 122.334 293.418 122.212 292.535 122.027C288.98 121.424 285.353 121.205 281.747 121.437C278.146 121.693 274.569 122.347 271.133 123.462C267.697 124.569 264.401 126.157 261.47 128.271C258.539 130.372 255.956 132.997 254.094 136.096C252.198 139.179 251.252 142.805 251.294 146.426C251.366 150.055 252.571 153.624 254.549 156.673Z" fill="#263238"/>
<path d="M267.533 149.909V151.757H260.004V140.914H267.396V142.762H262.112V145.373H266.678V147.084H262.112V149.909H267.533Z" fill="#263238"/>
<path d="M269.183 151.758V140.914H273.979C274.478 140.914 274.939 141.019 275.361 141.228C275.783 141.437 276.147 141.712 276.452 142.052C276.758 142.394 276.997 142.781 277.17 143.213C277.343 143.646 277.429 144.082 277.429 144.519C277.429 145.221 277.253 145.86 276.902 146.436C276.552 147.011 276.076 147.426 275.475 147.68L277.949 151.758H275.582L273.368 148.123H271.291V151.758H269.183ZM271.291 146.275H273.933C274.126 146.275 274.307 146.229 274.475 146.137C274.643 146.046 274.788 145.921 274.911 145.763C275.033 145.606 275.129 145.42 275.2 145.206C275.272 144.992 275.308 144.763 275.308 144.519C275.308 144.264 275.266 144.031 275.186 143.817C275.104 143.603 274.995 143.418 274.857 143.26C274.72 143.102 274.562 142.98 274.384 142.893C274.205 142.806 274.025 142.763 273.841 142.763H271.292V146.275H271.291Z" fill="#263238"/>
<path d="M279.338 151.758V140.914H284.134C284.633 140.914 285.093 141.019 285.515 141.228C285.937 141.437 286.301 141.712 286.607 142.052C286.913 142.394 287.152 142.781 287.324 143.213C287.497 143.646 287.584 144.082 287.584 144.519C287.584 145.221 287.408 145.86 287.057 146.436C286.707 147.011 286.23 147.426 285.629 147.68L288.103 151.758H285.735L283.521 148.123H281.445V151.758H279.338ZM281.446 146.275H284.088C284.281 146.275 284.462 146.229 284.629 146.137C284.798 146.046 284.942 145.921 285.065 145.763C285.187 145.606 285.284 145.42 285.355 145.206C285.427 144.992 285.463 144.763 285.463 144.519C285.463 144.264 285.421 144.031 285.34 143.817C285.258 143.603 285.15 143.418 285.012 143.26C284.874 143.102 284.716 142.98 284.538 142.893C284.36 142.806 284.179 142.763 283.996 142.763H281.446V146.275Z" fill="#263238"/>
<path d="M294.122 151.833C293.328 151.833 292.608 151.679 291.961 151.368C291.313 151.058 290.759 150.645 290.296 150.131C289.832 149.617 289.474 149.029 289.219 148.368C288.965 147.706 288.838 147.029 288.838 146.337C288.838 145.614 288.973 144.922 289.243 144.26C289.512 143.598 289.884 143.012 290.357 142.503C290.831 141.994 291.393 141.59 292.044 141.289C292.696 140.989 293.403 140.839 294.167 140.839C294.951 140.839 295.666 140.999 296.313 141.32C296.96 141.641 297.512 142.06 297.97 142.58C298.428 143.099 298.784 143.69 299.039 144.351C299.293 145.014 299.42 145.685 299.42 146.367C299.42 147.09 299.288 147.78 299.024 148.436C298.759 149.093 298.392 149.673 297.924 150.178C297.456 150.682 296.895 151.084 296.244 151.384C295.592 151.683 294.885 151.833 294.122 151.833ZM290.975 146.336C290.975 146.804 291.046 147.258 291.189 147.695C291.332 148.133 291.539 148.52 291.807 148.856C292.077 149.192 292.408 149.462 292.8 149.665C293.192 149.869 293.637 149.971 294.137 149.971C294.646 149.971 295.096 149.867 295.488 149.658C295.88 149.45 296.21 149.172 296.481 148.826C296.75 148.479 296.954 148.09 297.092 147.658C297.229 147.225 297.298 146.784 297.298 146.337C297.298 145.869 297.223 145.416 297.077 144.978C296.929 144.541 296.721 144.153 296.451 143.817C296.18 143.481 295.85 143.213 295.458 143.016C295.066 142.817 294.626 142.717 294.138 142.717C293.628 142.717 293.175 142.822 292.779 143.031C292.381 143.24 292.05 143.514 291.786 143.855C291.521 144.197 291.32 144.584 291.183 145.016C291.044 145.448 290.975 145.888 290.975 146.336Z" fill="#263238"/>
<path d="M301.039 151.758V140.914H305.835C306.334 140.914 306.795 141.019 307.217 141.228C307.639 141.437 308.003 141.712 308.308 142.052C308.614 142.394 308.854 142.781 309.026 143.213C309.199 143.646 309.285 144.082 309.285 144.519C309.285 145.221 309.11 145.86 308.759 146.436C308.408 147.011 307.932 147.426 307.331 147.68L309.806 151.758H307.438L305.224 148.123H303.147V151.758H301.039ZM303.147 146.275H305.789C305.982 146.275 306.163 146.229 306.331 146.137C306.499 146.046 306.645 145.921 306.767 145.763C306.889 145.606 306.985 145.42 307.056 145.206C307.128 144.992 307.164 144.763 307.164 144.519C307.164 144.264 307.123 144.031 307.042 143.817C306.96 143.603 306.851 143.418 306.713 143.26C306.576 143.102 306.418 142.98 306.24 142.893C306.061 142.806 305.881 142.763 305.697 142.763H303.148V146.275H303.147Z" fill="#263238"/>
</svg>
