<svg width="218" height="34" viewBox="0 0 218 34" fill="none" xmlns="http://www.w3.org/2000/svg">
<path d="M0 33.1556V8.87656H6.36837V33.1556H0V33.1556Z" fill="#ffffff"/>
<path d="M20.8894 33.7985C18.9336 33.7985 17.1905 33.4874 15.6602 32.8583C14.1298 32.2292 12.8328 31.3581 11.776 30.2382C10.7192 29.1182 9.90941 27.7633 9.35355 26.1871C8.79769 24.604 8.52319 22.8757 8.52319 20.9953C8.52319 19.0803 8.80455 17.3382 9.381 15.7551C9.95059 14.172 10.7741 12.8239 11.8515 11.704C12.9289 10.5841 14.2259 9.71992 15.7356 9.11156C17.2523 8.5032 18.9679 8.19902 20.8894 8.19902C22.7765 8.19902 24.4716 8.5032 25.9744 9.11156C27.4705 9.71992 28.7537 10.5771 29.8106 11.6833C30.8674 12.7894 31.684 14.1305 32.2536 15.7136C32.8232 17.2967 33.1114 19.0596 33.1114 21.0022C33.1114 22.9448 32.8232 24.7007 32.2536 26.27C31.684 27.8324 30.8674 29.1805 29.8106 30.3004C28.7537 31.4203 27.4636 32.2845 25.947 32.8998C24.4373 33.4943 22.7491 33.7985 20.8894 33.7985ZM20.9168 28.42C24.801 28.42 26.743 25.952 26.743 21.016C26.743 16.1146 24.801 13.6604 20.9168 13.6604C17.0327 13.6604 15.0906 16.1146 15.0906 21.016C15.0837 25.952 17.0258 28.42 20.9168 28.42Z" fill="#ffffff"/>
<path d="M50.645 33.1556V18.4513C50.645 16.5778 50.3362 15.3127 49.7117 14.649C49.0941 13.9923 48.0304 13.6604 46.5275 13.6604C43.2267 13.6604 41.5797 15.5201 41.5797 19.2394V33.1556H35.2113V8.87654H41.2846V12.4161C42.0326 11.0196 43.0277 9.96882 44.2629 9.25677C45.4981 8.54471 47.0971 8.18523 49.046 8.18523C50.1852 8.18523 51.242 8.35806 52.2234 8.70371C53.1978 9.04937 54.0419 9.56786 54.735 10.2592C55.435 10.9505 55.9909 11.8008 56.3957 12.8032C56.8006 13.8056 57.0065 14.967 57.0065 16.2874V33.1487H50.645V33.1556Z" fill="#ffffff"/>
<path d="M59.7584 33.1556V8.87656H66.1268V33.1556H59.7584V33.1556Z" fill="#ffffff"/>
<path d="M90.5159 24.3757C90.3512 25.7929 89.9532 27.0719 89.3149 28.2264C88.6767 29.3809 87.867 30.3625 86.8925 31.1852C85.9112 32.0079 84.7926 32.6508 83.5368 33.1071C82.2809 33.5702 80.9153 33.7984 79.4467 33.7984C77.8135 33.7984 76.3174 33.5288 74.9655 32.9826C73.6068 32.4365 72.4401 31.6207 71.4657 30.5146C70.4843 29.4154 69.7295 28.0466 69.1873 26.422C68.6521 24.7905 68.3776 22.8963 68.3776 20.7187C68.3776 18.5479 68.6452 16.6745 69.1873 15.0914C69.7295 13.5082 70.4843 12.2224 71.4657 11.22C72.447 10.2176 73.6274 9.47096 75.0136 8.97321C76.3998 8.48238 77.9438 8.23351 79.6457 8.23351C81.2104 8.23351 82.6378 8.44781 83.9348 8.87643C85.2249 9.30505 86.3504 9.92723 87.3111 10.7499C88.2719 11.5726 89.0336 12.5611 89.5895 13.7087C90.1453 14.8632 90.4747 16.1422 90.5708 17.5594H84.1544C83.9897 16.3081 83.4956 15.3333 82.6584 14.6213C81.828 13.9161 80.8055 13.5636 79.5977 13.5636C78.9115 13.5636 78.2732 13.6811 77.6831 13.9092C77.0929 14.1373 76.5782 14.5245 76.139 15.0706C75.6998 15.6098 75.3498 16.3357 75.0891 17.2414C74.8283 18.147 74.6979 19.26 74.6979 20.5735C74.6979 23.2351 75.1714 25.2122 76.1184 26.4981C77.0654 27.7839 78.1566 28.4199 79.3987 28.4199C80.6408 28.4199 81.7045 28.0743 82.5829 27.383C83.4681 26.6916 83.9691 25.6892 84.0995 24.3757H90.5159Z" fill="#ffffff"/>
<path d="M108.509 33.1555V18.1056C108.509 16.2667 108.194 15.0085 107.555 14.331C106.917 13.6604 105.867 13.3217 104.399 13.3217C103.616 13.3217 102.91 13.4807 102.292 13.7918C101.674 14.1028 101.146 14.5315 100.727 15.0776C100.302 15.6168 99.9861 16.2459 99.7734 16.9511C99.5607 17.6562 99.4577 18.4236 99.4577 19.2462V33.1624H93.0894V0H99.4577L99.444 12.0427C99.6705 11.5173 100.02 11.0127 100.494 10.5357C100.967 10.0586 101.51 9.65769 102.134 9.32585C102.752 9.00093 103.438 8.73132 104.186 8.53775C104.934 8.34418 105.716 8.24049 106.533 8.24049C109.01 8.24049 111.021 8.92489 112.572 10.2868C114.116 11.6556 114.891 13.5498 114.891 15.9832V33.1555H108.509V33.1555Z" fill="#ffffff"/>
<path d="M123.305 22.6958C123.401 24.5347 123.936 26.0003 124.897 27.0857C125.858 28.1711 127.127 28.7103 128.692 28.7103C129.735 28.7103 130.661 28.4752 131.457 27.9982C132.253 27.5212 132.768 26.8576 133.001 26.0003H139.562C138.807 28.5029 137.503 30.4248 135.644 31.7728C133.784 33.1209 131.56 33.7984 128.98 33.7984C120.944 33.7984 116.93 29.3878 116.93 20.5735C116.93 18.7 117.19 17.0063 117.712 15.4923C118.233 13.9783 118.995 12.6787 119.99 11.5933C120.985 10.5079 122.2 9.67836 123.641 9.09765C125.075 8.52386 126.729 8.23351 128.589 8.23351C132.308 8.23351 135.129 9.43639 137.037 11.8353C138.951 14.2341 139.905 17.8566 139.905 22.6889H123.305V22.6958ZM133.345 18.6516C133.31 17.7668 133.159 16.9856 132.878 16.3081C132.603 15.6375 132.233 15.0775 131.773 14.6282C131.313 14.1857 130.792 13.8539 130.208 13.6396C129.618 13.4253 129.014 13.3147 128.397 13.3147C127.12 13.3147 126.022 13.7848 125.089 14.725C124.156 15.6652 123.627 16.9717 123.497 18.6447H133.345V18.6516Z" fill="#ffffff"/>
<path d="M156.951 33.1554C156.759 32.5333 156.629 31.8074 156.56 30.9847C155.805 31.8419 154.81 32.5194 153.568 33.031C152.326 33.5426 150.892 33.7984 149.259 33.7984C146.486 33.7984 144.448 33.1831 143.158 31.9456C141.868 30.7151 141.223 29.1113 141.223 27.1341C141.223 25.392 141.504 24.0024 142.06 22.9655C142.616 21.9285 143.384 21.1127 144.359 20.5251C145.34 19.9306 146.507 19.495 147.859 19.2185C149.211 18.942 150.693 18.6862 152.292 18.4512C153.891 18.223 154.968 17.9188 155.524 17.5386C156.08 17.1584 156.354 16.5431 156.354 15.6859C156.354 14.8978 155.984 14.2825 155.25 13.8332C154.515 13.3907 153.527 13.1695 152.285 13.1695C150.816 13.1695 149.76 13.5013 149.128 14.1581C148.49 14.8148 148.092 15.6859 147.927 16.7713H142.005C142.039 15.52 142.238 14.3724 142.616 13.3147C142.993 12.2639 143.597 11.3583 144.427 10.6047C145.258 9.85119 146.342 9.26357 147.68 8.84878C149.018 8.4409 150.645 8.23351 152.566 8.23351C154.454 8.23351 156.059 8.44781 157.377 8.87643C158.695 9.30505 159.751 9.92032 160.547 10.7292C161.343 11.538 161.92 12.5404 162.277 13.7433C162.634 14.9462 162.812 16.3012 162.812 17.8151V33.1624H156.951V33.1554ZM156.512 21.2648C156.183 21.5966 155.709 21.8593 155.092 22.0529C154.474 22.2534 153.575 22.4677 152.395 22.6958C150.562 23.0553 149.307 23.5185 148.62 24.0785C147.934 24.6384 147.591 25.4404 147.591 26.4981C147.591 28.3093 148.62 29.2149 150.679 29.2149C151.496 29.2149 152.258 29.0767 152.957 28.7932C153.657 28.5167 154.261 28.1365 154.769 27.6595C155.277 27.1825 155.682 26.6225 155.991 25.9796C156.3 25.3367 156.457 24.6523 156.457 23.9333L156.512 21.2648Z" fill="#ffffff"/>
<path d="M165.427 33.1555V0H171.795V33.1624H165.427V33.1555Z" fill="#ffffff"/>
<path d="M187.956 17.1653H193.837V24.0715C193.837 25.3505 193.652 26.581 193.275 27.7493C192.897 28.9177 192.314 29.9546 191.518 30.8603C190.722 31.7659 189.713 32.478 188.491 33.0103C187.27 33.5357 185.815 33.7984 184.12 33.7984C182.363 33.7984 180.86 33.5357 179.625 33.0103C178.39 32.4849 177.367 31.7797 176.571 30.8879C175.775 29.9961 175.199 28.9661 174.835 27.777C174.478 26.5949 174.3 25.3436 174.3 24.0232V2.31583H180.62V8.87642H193.844V13.4184H180.62V23.3871C180.62 24.9357 180.901 26.1248 181.471 26.9682C182.041 27.8047 182.974 28.2264 184.271 28.2264C185.534 28.2264 186.467 27.8185 187.071 26.9958C187.668 26.1731 187.97 25.0048 187.97 23.4908V17.1653H187.956Z" fill="#ffffff"/>
<path d="M211.618 33.1555V18.1056C211.618 16.2667 211.302 15.0085 210.664 14.331C210.026 13.6604 208.976 13.3217 207.507 13.3217C206.725 13.3217 206.018 13.4807 205.401 13.7918C204.783 14.1028 204.255 14.5315 203.836 15.0776C203.41 15.6168 203.095 16.2459 202.882 16.9511C202.669 17.6562 202.566 18.4236 202.566 19.2462V33.1624H196.198V0H202.566L202.553 12.0427C202.779 11.5173 203.129 11.0127 203.603 10.5357C204.076 10.0586 204.618 9.65769 205.243 9.32585C205.86 9.00093 206.547 8.73132 207.295 8.53775C208.043 8.34418 208.825 8.24049 209.642 8.24049C212.119 8.24049 214.13 8.92489 215.681 10.2868C217.225 11.6556 218 13.5498 218 15.9832V33.1555H211.618V33.1555Z" fill="#ffffff"/>
</svg>
