<svg width="438" height="68" viewBox="0 0 438 68" fill="none" xmlns="http://www.w3.org/2000/svg">
<path d="M0 66.0285V17.6774H12.7917V66.0285H0Z" fill="white"/>
<path d="M41.959 67.3088C38.0305 67.3088 34.5294 66.6892 31.4555 65.4364C28.3816 64.1836 25.7764 62.4489 23.6536 60.2186C21.5309 57.9882 19.9043 55.2898 18.7878 52.1509C17.6713 48.9981 17.1199 45.5563 17.1199 41.8116C17.1199 37.998 17.6851 34.5286 18.843 31.3759C19.987 28.2232 21.6411 25.5385 23.8053 23.3082C25.9694 21.0779 28.5746 19.357 31.6071 18.1454C34.6534 16.9339 38.0995 16.3281 41.959 16.3281C45.7497 16.3281 49.1544 16.9339 52.1731 18.1454C55.178 19.357 57.7557 21.0641 59.8785 23.2669C62.0012 25.4697 63.6415 28.1406 64.7856 31.2933C65.9297 34.446 66.5086 37.9567 66.5086 41.8253C66.5086 45.694 65.9297 49.1909 64.7856 52.3161C63.6415 55.4275 62.0012 58.1122 59.8785 60.3425C57.7557 62.5728 55.1643 64.2937 52.118 65.519C49.0854 66.703 45.6945 67.3088 41.959 67.3088ZM42.0142 56.5977C49.816 56.5977 53.7169 51.6828 53.7169 41.8529C53.7169 32.0918 49.816 27.2044 42.0142 27.2044C34.2123 27.2044 30.3114 32.0918 30.3114 41.8529C30.2976 51.6828 34.1985 56.5977 42.0142 56.5977Z" fill="white"/>
<path d="M101.727 66.0285V36.7452C101.727 33.0143 101.107 30.4948 99.8526 29.1732C98.612 27.8653 96.4755 27.2044 93.4568 27.2044C86.8266 27.2044 83.5184 30.9079 83.5184 38.3147V66.0285H70.7267V17.6774H82.9256V24.7263C84.4281 21.9453 86.4268 19.8527 88.908 18.4346C91.3891 17.0166 94.6008 16.3007 98.5156 16.3007C100.804 16.3007 102.926 16.6449 104.898 17.3332C106.855 18.0216 108.55 19.0542 109.943 20.4309C111.349 21.8076 112.465 23.501 113.278 25.4973C114.092 27.4936 114.505 29.8065 114.505 32.436V66.0147H101.727V66.0285Z" fill="white"/>
<path d="M120.033 66.0285V17.6774H132.824V66.0285H120.033Z" fill="white"/>
<path d="M181.813 48.5437C181.483 51.366 180.683 53.9129 179.401 56.2121C178.119 58.5112 176.493 60.4662 174.535 62.1045C172.564 63.7429 170.317 65.0232 167.795 65.9319C165.272 66.8543 162.529 67.3086 159.579 67.3086C156.299 67.3086 153.294 66.7717 150.578 65.6841C147.849 64.5964 145.506 62.9719 143.548 60.7691C141.577 58.5801 140.061 55.8541 138.972 52.6188C137.897 49.3697 137.346 45.5974 137.346 41.2607C137.346 36.9378 137.883 33.2068 138.972 30.0541C140.061 26.9013 141.577 24.3406 143.548 22.3443C145.52 20.3481 147.89 18.8612 150.675 17.8699C153.459 16.8924 156.561 16.3968 159.979 16.3968C163.122 16.3968 165.989 16.8236 168.594 17.6772C171.186 18.5308 173.446 19.7698 175.376 21.4081C177.306 23.0465 178.836 25.0152 179.952 27.3006C181.069 29.5997 181.731 32.1467 181.924 34.969H169.035C168.705 32.4771 167.712 30.5359 166.03 29.1179C164.363 27.7136 162.309 27.0115 159.883 27.0115C158.504 27.0115 157.222 27.2455 156.037 27.6998C154.851 28.1542 153.818 28.9251 152.935 30.0128C152.053 31.0866 151.35 32.5322 150.827 34.3357C150.303 36.1392 150.041 38.3558 150.041 40.9716C150.041 46.272 150.992 50.2095 152.894 52.7702C154.796 55.331 156.988 56.5976 159.483 56.5976C161.978 56.5976 164.114 55.9092 165.879 54.5325C167.657 53.1557 168.663 51.1595 168.925 48.5437H181.813Z" fill="white"/>
<path d="M217.955 66.0284V36.0568C217.955 32.3946 217.321 29.889 216.039 28.5398C214.757 27.2043 212.649 26.5297 209.699 26.5297C208.127 26.5297 206.708 26.8464 205.467 27.4659C204.226 28.0855 203.165 28.939 202.324 30.0267C201.47 31.1005 200.835 32.3534 200.408 33.7576C199.981 35.1619 199.774 36.6901 199.774 38.3284V66.0421H186.982V0H199.774L199.747 23.9828C200.201 22.9365 200.904 21.9314 201.856 20.9815C202.807 20.0315 203.896 19.233 205.15 18.5722C206.39 17.9251 207.769 17.3882 209.271 17.0027C210.774 16.6172 212.345 16.4107 213.986 16.4107C218.962 16.4107 223 17.7737 226.116 20.4859C229.217 23.2118 230.775 26.9841 230.775 31.8302V66.0284H217.955Z" fill="white"/>
<path d="M247.674 45.1982C247.867 48.8603 248.942 51.779 250.872 53.9405C252.802 56.102 255.352 57.1758 258.495 57.1758C260.59 57.1758 262.451 56.7077 264.05 55.7578C265.649 54.8078 266.682 53.4862 267.151 51.779H280.329C278.813 56.7628 276.194 60.5901 272.458 63.2748C268.723 65.9594 264.256 67.3086 259.074 67.3086C242.932 67.3086 234.869 58.525 234.869 40.9716C234.869 37.2406 235.392 33.8676 236.44 30.8526C237.488 27.8375 239.018 25.2492 241.016 23.0878C243.015 20.9263 245.455 19.2742 248.35 18.1177C251.23 16.9751 254.552 16.3968 258.288 16.3968C265.759 16.3968 271.424 18.7923 275.256 23.5696C279.102 28.3469 281.018 35.561 281.018 45.1844H247.674V45.1982ZM267.84 37.1443C267.771 35.382 267.468 33.8263 266.903 32.4771C266.352 31.1417 265.607 30.0265 264.684 29.1317C263.76 28.2505 262.713 27.5897 261.541 27.1629C260.356 26.7361 259.143 26.5158 257.902 26.5158C255.338 26.5158 253.133 27.452 251.258 29.3244C249.383 31.1968 248.322 33.7988 248.06 37.1305H267.84V37.1443Z" fill="white"/>
<path d="M315.258 66.0282C314.872 64.7892 314.61 63.3436 314.472 61.7053C312.956 63.4124 310.957 64.7616 308.462 65.7804C305.967 66.7992 303.087 67.3086 299.806 67.3086C294.237 67.3086 290.143 66.0833 287.552 63.6189C284.96 61.1684 283.665 57.9743 283.665 54.0368C283.665 50.5675 284.23 47.8002 285.346 45.7351C286.463 43.67 288.007 42.0455 289.964 40.8752C291.935 39.6912 294.278 38.8239 296.994 38.2732C299.709 37.7225 302.687 37.2131 305.898 36.745C309.11 36.2907 311.274 35.6849 312.391 34.9277C313.507 34.1705 314.059 32.9452 314.059 31.2381C314.059 29.6686 313.314 28.4433 311.839 27.5484C310.365 26.6673 308.38 26.2267 305.885 26.2267C302.935 26.2267 300.812 26.8876 299.544 28.1955C298.262 29.5034 297.463 31.2381 297.132 33.3995H285.236C285.305 30.9076 285.705 28.6223 286.463 26.5158C287.221 24.4232 288.434 22.6197 290.102 21.119C291.77 19.6184 293.948 18.4482 296.636 17.6221C299.323 16.8098 302.59 16.3968 306.45 16.3968C310.241 16.3968 313.466 16.8236 316.113 17.6772C318.759 18.5308 320.882 19.7561 322.481 21.3668C324.08 22.9776 325.238 24.9739 325.954 27.3694C326.671 29.765 327.03 32.4634 327.03 35.4784V66.042H315.258V66.0282ZM314.376 42.3483C313.714 43.0092 312.763 43.5323 311.522 43.9178C310.282 44.3171 308.476 44.7439 306.105 45.1982C302.425 45.9141 299.902 46.8365 298.524 47.9517C297.146 49.0668 296.456 50.6638 296.456 52.7702C296.456 56.3773 298.524 58.1808 302.659 58.1808C304.3 58.1808 305.83 57.9055 307.236 57.341C308.642 56.7903 309.855 56.0331 310.875 55.0832C311.895 54.1332 312.708 53.0181 313.328 51.7377C313.948 50.4573 314.265 49.0944 314.265 47.6625L314.376 42.3483Z" fill="white"/>
<path d="M332.281 66.0284V0H345.073V66.0421H332.281V66.0284Z" fill="white"/>
<path d="M377.535 34.1842H389.348V47.9379C389.348 50.4848 388.976 52.9354 388.218 55.2621C387.46 57.5888 386.288 59.6539 384.689 61.4574C383.09 63.261 381.064 64.679 378.61 65.7391C376.157 66.7854 373.234 67.3086 369.83 67.3086C366.301 67.3086 363.282 66.7854 360.801 65.7391C358.32 64.6928 356.266 63.2885 354.667 61.5125C353.068 59.7365 351.91 57.6852 351.18 55.3172C350.463 52.963 350.104 50.4711 350.104 47.8415V4.61191H362.8V17.6772H389.362V26.7223H362.8V46.5749C362.8 49.6588 363.365 52.0268 364.509 53.7064C365.653 55.3723 367.528 56.2121 370.133 56.2121C372.669 56.2121 374.544 55.3998 375.757 53.7615C376.956 52.1232 377.563 49.7965 377.563 46.7814V34.1842H377.535Z" fill="white"/>
<path d="M425.063 66.0284V36.0568C425.063 32.3947 424.429 29.889 423.147 28.5398C421.865 27.2043 419.756 26.5297 416.806 26.5297C415.235 26.5297 413.815 26.8464 412.574 27.4659C411.334 28.0855 410.272 28.939 409.431 30.0267C408.577 31.1005 407.943 32.3534 407.515 33.7576C407.088 35.1619 406.881 36.6901 406.881 38.3284V66.0421H394.09V0H406.881L406.854 23.9828C407.309 22.9365 408.012 21.9314 408.963 20.9815C409.914 20.0315 411.003 19.233 412.257 18.5722C413.498 17.9251 414.876 17.3882 416.379 17.0027C417.881 16.6172 419.453 16.4107 421.093 16.4107C426.069 16.4107 430.108 17.7737 433.223 20.4859C436.324 23.2118 437.882 26.9841 437.882 31.8302V66.0284H425.063V66.0284Z" fill="white"/>
</svg>
