<svg width="136" height="136" viewBox="0 0 136 136" fill="none" xmlns="http://www.w3.org/2000/svg">
<path id="Vector" d="M133.18 59.5612C127.705 52.7424 115.057 47.2421 99.1991 44.0022C94.6305 18.347 82.6617 0.0755849 68.5407 0.000239038C54.533 -0.0751069 42.4508 17.6689 37.4669 42.8721C8.54532 47.6942 -6.70842 59.6742 2.84401 71.5412C8.24322 78.2846 20.6653 83.7095 36.221 86.9871C40.0722 115.204 52.6073 135.887 67.6722 136C72.9204 136.037 77.9043 133.551 82.3218 129.105C94.7438 115.468 99.0857 95.3128 100.558 80.8087C100.974 76.74 101.2 72.5207 101.2 68.2259C101.2 66.5683 101.2 64.9107 101.162 63.2908H101.2C101.2 63.2908 101.2 63.1778 101.2 62.9894C101.2 62.9141 101.2 62.8764 101.2 62.8764L101.804 63.1778C107.392 64.6093 111.508 66.5307 113.32 68.791C116.076 72.2193 113.169 75.7605 106.373 78.7367C106.033 81.5998 105.58 84.3876 105.013 87.0624C129.669 81.5622 141.94 70.4863 133.18 59.5612ZM59.0637 16.5763C65.2558 16.614 70.6172 26.409 73.2979 40.8377C65.218 40.461 56.9116 40.6117 48.6806 41.3651C47.2081 41.5158 45.7356 41.6665 44.3009 41.8172C47.0949 26.8234 52.6828 16.5387 59.0637 16.5763ZM74.9216 69.5068C74.2797 83.4835 72.1275 89.5488 71.8255 90.3776C68.7672 101.981 63.8965 109.478 58.4218 109.44C55.7033 109.44 53.1359 107.519 50.9083 104.166C45.8489 96.7444 43.9989 84.1993 43.9989 84.1993C36.2587 82.843 35.5791 82.5417 35.5791 82.5417C34.8617 82.3156 34.1821 82.0896 33.5025 81.9012C29.085 80.545 25.8379 78.8497 24.2899 76.8907C21.4204 73.3118 24.7052 69.5445 32.2943 66.493C33.8801 65.8149 35.0504 65.4381 35.0504 65.4381C55.6656 58.9207 75.1103 60.1639 75.1103 60.1639C75.1103 60.6537 75.1103 61.1434 75.1103 61.6332C75.1103 62.1229 75.1103 62.6127 75.1103 63.1401C75.1103 65.2875 75.0348 67.3971 74.9216 69.5068Z" fill="white"/>
</svg>
